<?xml version="1.0" encoding="UTF-8"?>
<svg version="1.1" xmlns="http://www.w3.org/2000/svg" width="1080" height="340">
<path d="M0 0 C9.59620641 9.0514436 15.39633003 21.29798491 17.0390625 34.375 C17.09759475 37.04521585 17.0726316 39.70345904 17.0390625 42.375 C12.50008545 42.39965392 7.96114707 42.41783789 3.42211914 42.42993164 C1.87686484 42.4349714 0.33161534 42.4418032 -1.21362305 42.45043945 C-3.43018779 42.46252076 -5.64668968 42.46823173 -7.86328125 42.47265625 C-8.90548073 42.48039818 -8.90548073 42.48039818 -9.96873474 42.48829651 C-11.6332308 42.48849277 -13.29759249 42.43689129 -14.9609375 42.375 C-16.45193056 40.88400694 -16.43888105 39.30494126 -16.8359375 37.25 C-17.74827233 32.9606646 -19.12557807 29.35161209 -20.9609375 25.375 C-21.2703125 24.446875 -21.5796875 23.51875 -21.8984375 22.5625 C-23.23181611 19.81730874 -24.15211536 19.46731972 -26.9609375 18.375 C-27.8890625 17.88 -28.8171875 17.385 -29.7734375 16.875 C-40.30384676 11.91951329 -53.37916057 11.63771647 -64.5234375 14.875 C-71.92102822 17.79915167 -77.90004414 22.50973535 -81.3984375 29.75 C-87.50375609 46.0678515 -88.1367303 66.34167667 -80.97265625 82.34765625 C-78.8269829 87.15515786 -78.8269829 87.15515786 -74.9609375 90.375 C-74.9609375 91.035 -74.9609375 91.695 -74.9609375 92.375 C-73.2978791 93.05061748 -71.62999145 93.71433281 -69.9609375 94.375 C-69.03667969 94.75398438 -69.03667969 94.75398438 -68.09375 95.140625 C-56.2566589 99.83861446 -42.48257532 99.68897026 -30.5859375 95.0625 C-20.68689869 88.69883219 -18.11092405 82.13946512 -15.57421875 70.81640625 C-14.9609375 68.375 -14.9609375 68.375 -13.9609375 67.375 C-11.66942333 67.28709025 -9.37521226 67.26805962 -7.08203125 67.27734375 C-6.05203758 67.27946617 -6.05203758 67.27946617 -5.00123596 67.28163147 C-2.80025949 67.28724521 -0.59938341 67.29979993 1.6015625 67.3125 C3.09049333 67.31751324 4.57942574 67.32207645 6.06835938 67.32617188 C9.72529325 67.33721907 13.38216808 67.35449287 17.0390625 67.375 C19.99336628 76.23791134 15.1023611 89.15905688 11.2890625 97.4375 C5.25304452 108.7550337 -3.08167431 115.83113089 -14.9609375 120.375 C-15.68152344 120.65214844 -16.40210937 120.92929688 -17.14453125 121.21484375 C-27.73473012 125.00919308 -38.21768663 125.71663171 -49.3984375 125.6875 C-50.63142578 125.70361328 -51.86441406 125.71972656 -53.13476562 125.73632812 C-70.38846242 125.7454426 -88.62455261 120.63702241 -101.1328125 108.21875 C-105.9609375 102.8885 -105.9609375 102.8885 -105.9609375 100.375 C-106.6209375 100.375 -107.2809375 100.375 -107.9609375 100.375 C-119.39370561 79.22030556 -123.58349703 55.57447224 -117.30371094 31.89697266 C-114.26359688 22.09603722 -110.15711187 13.81931832 -102.9609375 6.375 C-102.37699219 5.73820312 -101.79304688 5.10140625 -101.19140625 4.4453125 C-99.84584699 3.0244543 -98.41203184 1.68789488 -96.9609375 0.375 C-96.3009375 0.375 -95.6409375 0.375 -94.9609375 0.375 C-94.9609375 -0.285 -94.9609375 -0.945 -94.9609375 -1.625 C-89.65144556 -5.97725181 -83.36565685 -8.39558044 -76.8984375 -10.4375 C-76.25068359 -10.64415283 -75.60292969 -10.85080566 -74.93554688 -11.0637207 C-51.87794058 -17.94110854 -18.88772786 -15.65198165 0 0 Z " fill="#F1F1F1" transform="translate(142.9609375,106.625)"/>
<path d="M0 0 C1.58264648 -0.02416992 1.58264648 -0.02416992 3.19726562 -0.04882812 C10.44181044 -0.05328631 16.69191462 1.04760313 23.5625 3.3125 C24.66722656 3.66570312 25.77195312 4.01890625 26.91015625 4.3828125 C38.46480104 8.87166731 47.41023201 16.92327601 52.5625 28.3125 C56.44266365 40.67200904 56.44266365 40.67200904 54.5625 46.3125 C47.9625 46.3125 41.3625 46.3125 34.5625 46.3125 C34.15 44.62125 33.7375 42.93 33.3125 41.1875 C32.02931995 36.46831651 30.64722524 33.0937761 27.5625 29.3125 C26.9025 28.9825 26.2425 28.6525 25.5625 28.3125 C25.5625 27.6525 25.5625 26.9925 25.5625 26.3125 C24.716875 26.044375 23.87125 25.77625 23 25.5 C19.5625 24.3125 19.5625 24.3125 16.640625 22.76953125 C11.27778914 20.46288191 5.61735527 20.79936711 -0.125 20.8125 C-1.23294922 20.78414062 -2.34089844 20.75578125 -3.48242188 20.7265625 C-13.86006302 20.7023015 -22.55187877 23.41459501 -30.4375 30.3125 C-34.37378779 35.74186248 -34.2075194 41.87151419 -33.4375 48.3125 C-31.60196187 52.31731048 -29.12023953 53.65732168 -25.25 55.4375 C-17.88312029 58.10189021 -10.14280517 59.09678594 -2.4375 60.3125 C43.03998944 67.50248714 43.03998944 67.50248714 53.5625 80.3125 C53.5625 80.9725 53.5625 81.6325 53.5625 82.3125 C54.2225 82.3125 54.8825 82.3125 55.5625 82.3125 C61.49696075 92.14145062 61.12095342 105.60322746 58.90234375 116.578125 C58.0041139 119.05117342 56.97119311 121.09401924 55.5625 123.3125 C55.11132812 124.07304687 54.66015625 124.83359375 54.1953125 125.6171875 C46.54190803 136.92594933 33.19755283 142.32847729 20.26171875 144.9921875 C-0.97291848 148.50323737 -24.34243465 146.84229921 -42.4375 134.3125 C-45.25 131.8125 -45.25 131.8125 -47.4375 129.3125 C-48.283125 128.384375 -49.12875 127.45625 -50 126.5 C-56.21344429 118.82112073 -59.19820099 109.20161291 -58.4375 99.3125 C-57.4375 98.3125 -57.4375 98.3125 -55.57983398 98.19897461 C-54.39369507 98.20682983 -54.39369507 98.20682983 -53.18359375 98.21484375 C-51.90258789 98.21967773 -51.90258789 98.21967773 -50.59570312 98.22460938 C-49.69787109 98.23298828 -48.80003906 98.24136719 -47.875 98.25 C-46.97330078 98.25451172 -46.07160156 98.25902344 -45.14257812 98.26367188 C-42.90748686 98.27549775 -40.67252563 98.2919778 -38.4375 98.3125 C-37.14601206 101.44739381 -36.03418045 104.56594413 -35.0625 107.8125 C-32.94207355 114.12155209 -29.58585091 117.8594109 -23.86328125 121.17578125 C-10.93888498 127.23214085 7.351902 127.47194472 20.9453125 123.3515625 C26.76732376 121.04013713 32.618897 118.41623796 36.125 113 C38.25909995 107.52556968 39.05231973 102.85956259 37.9375 97.0625 C35.15074626 91.48899252 31.18239455 88.70721644 25.62426758 86.30712891 C18.62819554 84.03442358 11.20144131 83.32841628 3.9375 82.3125 C-38.59096494 76.28797989 -38.59096494 76.28797989 -50.82421875 61.640625 C-55.92903818 54.27386379 -57.48627092 46.12473368 -56.4375 37.3125 C-55.06559482 30.29467735 -52.14573649 24.38052336 -48.4375 18.3125 C-47.7775 18.3125 -47.1175 18.3125 -46.4375 18.3125 C-46.19773437 17.72339844 -45.95796875 17.13429688 -45.7109375 16.52734375 C-41.3615946 8.96268908 -30.36654988 4.85703884 -22.4375 2.3125 C-14.95535992 0.34680296 -7.70982763 -0.02346265 0 0 Z " fill="#028AFC" transform="translate(608.4375,83.6875)"/>
<path d="M0 0 C1.67977405 1.42514767 3.26726701 2.8130645 4.7265625 4.46484375 C4.7265625 5.12484375 4.7265625 5.78484375 4.7265625 6.46484375 C5.3865625 6.46484375 6.0465625 6.46484375 6.7265625 6.46484375 C14.51493887 19.49588124 17.557121 32.34379344 16.7265625 47.46484375 C16.3965625 48.45484375 16.0665625 49.44484375 15.7265625 50.46484375 C-9.0234375 50.46484375 -33.7734375 50.46484375 -59.2734375 50.46484375 C-56.27482543 61.56886508 -56.27482543 61.56886508 -52.2734375 66.46484375 C-52.2734375 67.12484375 -52.2734375 67.78484375 -52.2734375 68.46484375 C-51.5515625 68.75359375 -50.8296875 69.04234375 -50.0859375 69.33984375 C-48.37992174 70.02225005 -46.68598325 70.73769945 -45.01953125 71.51171875 C-38.21963511 73.8718534 -29.7930309 73.5036138 -23.1484375 70.77734375 C-19.62654497 68.93472094 -17.44024247 66.8450595 -15.2734375 63.46484375 C-14.2834375 61.97984375 -14.2834375 61.97984375 -13.2734375 60.46484375 C-10.38427734 60.12426758 -10.38427734 60.12426758 -6.734375 60.171875 C-4.78144531 60.18637695 -4.78144531 60.18637695 -2.7890625 60.20117188 C-1.40884827 60.22623987 -0.02863994 60.25163473 1.3515625 60.27734375 C2.73956913 60.29238858 4.12759117 60.30607734 5.515625 60.31835938 C8.91965759 60.35381805 12.32291872 60.40324077 15.7265625 60.46484375 C14.73019422 69.92540992 11.74572276 76.82087245 4.7265625 83.46484375 C-6.9907828 92.84321801 -20.4705846 95.86493826 -35.2109375 95.77734375 C-36.17733154 95.7731543 -37.14372559 95.76896484 -38.1394043 95.76464844 C-44.90940296 95.65719721 -50.95045716 95.03148908 -57.2734375 92.46484375 C-58.05460937 92.17480469 -58.83578125 91.88476562 -59.640625 91.5859375 C-72.45311878 86.43074219 -80.88371121 76.9985994 -86.2734375 64.46484375 C-91.55374577 51.00005766 -90.7310964 33.0201039 -86.2734375 19.46484375 C-83.71871963 13.72567364 -80.66638782 8.01468515 -76.2734375 3.46484375 C-75.6134375 3.46484375 -74.9534375 3.46484375 -74.2734375 3.46484375 C-74.2734375 2.80484375 -74.2734375 2.14484375 -74.2734375 1.46484375 C-52.82660782 -15.08917307 -21.80929708 -16.91791152 0 0 Z M-53.2734375 16.46484375 C-56.64866347 20.77227499 -57.9437492 24.9700387 -58.2734375 30.46484375 C-57.30154355 31.6557533 -57.30154355 31.6557533 -55.52073669 31.58509827 C-54.37823204 31.58176735 -54.37823204 31.58176735 -53.21264648 31.57836914 C-51.92142128 31.57825584 -51.92142128 31.57825584 -50.60411072 31.57814026 C-49.20099388 31.57039833 -49.20099388 31.57039833 -47.76953125 31.5625 C-46.34000877 31.56037758 -46.34000877 31.56037758 -44.88160706 31.55821228 C-41.82468585 31.55259527 -38.76783673 31.54003991 -35.7109375 31.52734375 C-33.64388126 31.52233094 -31.57682388 31.51776766 -29.50976562 31.51367188 C-24.43096162 31.50262031 -19.3522118 31.4853443 -14.2734375 31.46484375 C-12.87008508 28.65813891 -13.61931128 26.62226347 -14.4296875 23.6953125 C-16.22644187 18.94555905 -18.82475672 14.88927089 -23.28125 12.296875 C-33.58231946 8.36474634 -44.65838525 9.5353452 -53.2734375 16.46484375 Z " fill="#F1F1F1" transform="translate(315.2734375,136.53515625)"/>
<path d="M0 0 C1.06412109 -0.01611328 2.12824219 -0.03222656 3.22460938 -0.04882812 C16.87676665 -0.05715769 29.78127267 3.89959287 39.875 13.3828125 C50.8942661 25.11453115 52.29552428 39.12339742 52.11328125 54.515625 C52.1083454 56.13132319 52.10505432 57.74702714 52.10331726 59.36273193 C52.09574208 62.71776134 52.07536577 66.07235412 52.04418945 69.42724609 C52.00423312 73.73482669 51.98651206 78.04212753 51.97688007 82.34987259 C51.96694548 86.4676613 51.94707185 90.58538163 51.92578125 94.703125 C51.92068763 95.88206203 51.92068763 95.88206203 51.9154911 97.08481598 C51.90397748 99.29132907 51.88547618 101.49766064 51.86450195 103.70410156 C51.85465775 104.95950745 51.84481354 106.21491333 51.83467102 107.50836182 C51.6875 110.3125 51.6875 110.3125 50.6875 111.3125 C49.27179877 111.39901611 47.851905 111.41954904 46.43359375 111.41015625 C45.6645874 111.40765869 44.89558105 111.40516113 44.10327148 111.40258789 C43.12044189 111.39348389 42.1376123 111.38437988 41.125 111.375 C38.010625 111.354375 34.89625 111.33375 31.6875 111.3125 C31.3575 103.3925 31.0275 95.4725 30.6875 87.3125 C29.3675 89.9525 28.0475 92.5925 26.6875 95.3125 C18.0401074 107.06225612 7.99471929 111.90481261 -6.3125 114.3125 C-19.09528461 115.37773205 -31.99815477 112.56966081 -42.0625 104.4375 C-47.86385961 99.17795302 -50.95162136 93.36189407 -51.6484375 85.54296875 C-51.67817758 84.19557778 -51.69070694 82.84771534 -51.6875 81.5 C-51.68588867 80.79512451 -51.68427734 80.09024902 -51.68261719 79.36401367 C-51.54586946 73.53815817 -50.43956847 69.19377761 -47.3125 64.3125 C-46.755625 63.425625 -46.19875 62.53875 -45.625 61.625 C-37.11406415 53.11406415 -26.78132089 49.31670309 -14.85791016 49.19897461 C-12.68912116 49.19913203 -10.52032791 49.20472723 -8.3515625 49.21484375 C-7.20585785 49.2162587 -6.0601532 49.21767365 -4.87973022 49.21913147 C-1.23229322 49.2247142 2.41508165 49.23726359 6.0625 49.25 C8.54036369 49.25501723 11.01822835 49.25957975 13.49609375 49.26367188 C19.55991691 49.27467799 25.62370402 49.29139897 31.6875 49.3125 C31.09365522 46.74721112 30.48788512 44.18574546 29.875 41.625 C29.70935547 40.90376953 29.54371094 40.18253906 29.37304688 39.43945312 C28.36473358 35.27302648 27.2530499 31.83423911 24.6875 28.3125 C24.0275 27.9825 23.3675 27.6525 22.6875 27.3125 C22.6875 26.6525 22.6875 25.9925 22.6875 25.3125 C22.006875 25.044375 21.32625 24.77625 20.625 24.5 C17.6875 23.3125 17.6875 23.3125 14.6796875 21.76953125 C9.85792103 19.70974138 5.05139798 19.77871608 -0.125 19.8125 C-1.10388184 19.81677002 -2.08276367 19.82104004 -3.09130859 19.82543945 C-11.69135776 20.02890158 -17.24813044 21.76920346 -23.75 27.4375 C-26.15375376 31.86040692 -27.13453741 36.42395526 -28.3125 41.3125 C-34.9125 41.3125 -41.5125 41.3125 -48.3125 41.3125 C-48.3125 29.47704778 -45.58502485 21.14900187 -37.53125 12.37109375 C-27.0003959 2.37973013 -13.99541314 -0.04192754 0 0 Z M-29.06025696 72.26409912 C-31.51603445 76.28122408 -31.70458616 79.6858833 -31.3125 84.3125 C-28.85624601 89.13053667 -26.12156022 91.86425116 -21.3125 94.3125 C-9.0461309 97.61859642 4.2435549 97.20495274 15.890625 91.8359375 C23.12326433 87.50821068 28.79426084 82.37937693 31.0625 74.0625 C31.79709932 70.28852515 31.79709932 70.28852515 31.6875 66.3125 C25.05311363 66.21035501 18.41893303 66.14072456 11.78393555 66.09277344 C9.53092877 66.07276536 7.27797321 66.04555009 5.02514648 66.01074219 C1.77054133 65.96174658 -1.48337217 65.93942244 -4.73828125 65.921875 C-5.73144852 65.90122986 -6.72461578 65.88058472 -7.74787903 65.85931396 C-14.99381599 65.85703397 -23.93605133 66.54225367 -29.06025696 72.26409912 Z " fill="#02A2FC" transform="translate(840.3125,115.6875)"/>
<path d="M0 0 C10.23 0 20.46 0 31 0 C33.62484504 6.56211259 36.14909483 13.0821879 38.4609375 19.75 C38.77398834 20.64759033 39.08703918 21.54518066 39.40957642 22.4699707 C40.06775908 24.35867056 40.72483997 26.2477547 41.38085938 28.13720703 C42.36322854 30.96610213 43.3492793 33.79369211 44.3359375 36.62109375 C48.31769475 48.05019791 52.20628882 59.50713024 56 71 C57.9494466 66.56807409 59.68824194 62.16764495 61.19921875 57.5625 C61.59995605 56.34860596 62.00069336 55.13471191 62.41357422 53.8840332 C62.62141541 53.25018707 62.82925659 52.61634094 63.043396 51.96328735 C64.14272547 48.61243153 65.253002 45.26520948 66.36328125 41.91796875 C66.58584595 41.24654343 66.80841064 40.5751181 67.03771973 39.88334656 C69.09955994 33.67544944 71.2217431 27.48928904 73.375 21.3125 C73.68397217 20.42498047 73.99294434 19.53746094 74.3112793 18.62304688 C76.48945252 12.39530384 78.74492042 6.20146886 81 0 C90.57 0 100.14 0 110 0 C108.87500379 7.87497346 108.87500379 7.87497346 107.8359375 10.87036133 C107.60446014 11.54765289 107.37298279 12.22494446 107.13449097 12.92276001 C106.88385895 13.63531952 106.63322693 14.34787903 106.375 15.08203125 C105.98080368 16.22700577 105.98080368 16.22700577 105.5786438 17.39511108 C104.7250861 19.86969273 103.86269821 22.34109178 103 24.8125 C102.40554251 26.52951528 101.81163388 28.24672068 101.21826172 29.96411133 C100.03390844 33.3890167 98.84611605 36.81269729 97.65527344 40.23535156 C96.22106747 44.35923301 94.79906433 48.48710607 93.3828125 52.6171875 C89.80166598 63.04850186 86.16602774 73.45279507 82.29345703 83.7800293 C80.62771589 88.23011524 79.08912951 92.70323 77.64404297 97.23022461 C77 99 77 99 76 100 C70.19380144 100.29241979 64.38512443 100.31403532 58.57226562 100.35009766 C56.61088201 100.36666998 54.6495591 100.39397682 52.68847656 100.43212891 C49.86751839 100.48676181 47.04797769 100.50874967 44.2265625 100.5234375 C43.34835846 100.54610687 42.47015442 100.56877625 41.56533813 100.59213257 C39.27334684 100.58414103 37.23135032 100.52325824 35 100 C33.05371094 97.80664062 33.05371094 97.80664062 32 95 C31.64115723 94.13391113 31.28231445 93.26782227 30.91259766 92.37548828 C30.41832275 90.98692627 30.41832275 90.98692627 29.9140625 89.5703125 C29.54337646 88.53559814 29.17269043 87.50088379 28.79077148 86.43481445 C28.40606689 85.34257568 28.0213623 84.25033691 27.625 83.125 C27.22289307 81.99602295 26.82078613 80.8670459 26.40649414 79.70385742 C23.95163925 72.78409558 21.59240258 65.84114699 19.30859375 58.86328125 C17.64459199 53.87127596 15.81102739 48.94007565 14 44 C11.27092226 36.55107413 8.63009294 29.09146618 6.1640625 21.55078125 C5.32093139 18.97894843 4.46288134 16.41569384 3.5859375 13.85546875 C3.35221436 13.1689624 3.11849121 12.48245605 2.87768555 11.77514648 C2.22667935 9.86496027 1.57242758 7.95588105 0.91796875 6.046875 C0 3 0 3 0 0 Z " fill="#F1F1F1" transform="translate(339,129)"/>
<path d="M0 0 C0.70253906 0.43183594 1.40507813 0.86367187 2.12890625 1.30859375 C2.90363281 1.77136719 3.67835938 2.23414062 4.4765625 2.7109375 C13.78692751 9.06809825 18.87904238 19.45732722 21.12890625 30.30859375 C21.92019147 35.12900584 22.25113561 39.73792251 22.24243164 44.62084961 C22.24257767 45.31437531 22.24272369 46.007901 22.24287415 46.72244263 C22.24218365 48.98947398 22.23443217 51.2564207 22.2265625 53.5234375 C22.22469525 55.10526993 22.2232728 56.68710294 22.22227478 58.26893616 C22.2184738 62.41335676 22.20866439 66.5577418 22.1975708 70.70214844 C22.18730445 74.93879719 22.18276601 79.17545174 22.17773438 83.41210938 C22.16703976 91.71095557 22.14946278 100.00976612 22.12890625 108.30859375 C15.52890625 108.30859375 8.92890625 108.30859375 2.12890625 108.30859375 C2.10908691 106.36162598 2.08926758 104.4146582 2.06884766 102.40869141 C2.00080369 95.94259479 1.92400903 89.47664726 1.84137917 83.01072121 C1.79164451 79.09425962 1.7453145 75.17782206 1.70703125 71.26123047 C1.66988744 67.4744807 1.62345302 63.68794397 1.57084274 59.90137863 C1.55245201 58.46389923 1.53728892 57.02637444 1.52556229 55.58882523 C1.61852147 37.9611729 1.61852147 37.9611729 -6.32421875 22.7734375 C-14.28047054 15.88203759 -22.48764678 16.54398885 -32.52539062 17.0703125 C-39.05947036 17.73405749 -43.73878398 20.84895268 -48.24609375 25.43359375 C-55.10329942 34.77264721 -55.47406252 45.09841901 -55.48046875 56.2578125 C-55.49548207 57.76668545 -55.51221572 59.27554215 -55.53057861 60.78437805 C-55.57391168 64.71830074 -55.59417464 68.65200191 -55.60931396 72.58612061 C-55.62900924 76.61548784 -55.67096439 80.64462007 -55.7109375 84.67382812 C-55.78587006 92.55205003 -55.83432132 100.43010124 -55.87109375 108.30859375 C-62.80109375 108.30859375 -69.73109375 108.30859375 -76.87109375 108.30859375 C-76.89364195 94.24441374 -76.9120072 80.18024563 -76.92290592 66.11605167 C-76.92813545 59.58623142 -76.93523436 53.05642412 -76.9465332 46.52661133 C-76.9573596 40.23078216 -76.96337006 33.93496549 -76.96597099 27.63912773 C-76.96782569 25.23124431 -76.97144715 22.82336161 -76.97682381 20.41548347 C-76.98403095 17.05570089 -76.98508483 13.69597065 -76.98461914 10.33618164 C-76.98821442 9.32989716 -76.99180969 8.32361267 -76.99551392 7.28683472 C-76.99413925 6.37673141 -76.99276459 5.46662811 -76.99134827 4.52894592 C-76.99273096 3.33568491 -76.99273096 3.33568491 -76.99414158 2.1183176 C-76.87109375 0.30859375 -76.87109375 0.30859375 -75.87109375 -0.69140625 C-74.4676064 -0.79000756 -73.05928898 -0.82219562 -71.65234375 -0.82421875 C-70.37810547 -0.82615234 -70.37810547 -0.82615234 -69.078125 -0.828125 C-67.73814453 -0.82232422 -67.73814453 -0.82232422 -66.37109375 -0.81640625 C-65.47777344 -0.82027344 -64.58445312 -0.82414062 -63.6640625 -0.828125 C-62.81457031 -0.82683594 -61.96507812 -0.82554688 -61.08984375 -0.82421875 C-60.30544922 -0.82309082 -59.52105469 -0.82196289 -58.71289062 -0.82080078 C-56.87109375 -0.69140625 -56.87109375 -0.69140625 -55.87109375 0.30859375 C-55.7136877 2.01423153 -55.62015983 3.72586619 -55.5546875 5.4375 C-55.51279297 6.47197266 -55.47089844 7.50644531 -55.42773438 8.57226562 C-55.38841797 9.66087891 -55.34910156 10.74949219 -55.30859375 11.87109375 C-55.26541016 12.96357422 -55.22222656 14.05605469 -55.17773438 15.18164062 C-55.07127307 17.89048939 -54.96925859 20.59943367 -54.87109375 23.30859375 C-54.60119629 22.76589844 -54.33129883 22.22320312 -54.05322266 21.6640625 C-53.69663574 20.94863281 -53.34004883 20.23320312 -52.97265625 19.49609375 C-52.62025879 18.78839844 -52.26786133 18.08070313 -51.90478516 17.3515625 C-50.67084696 14.91282967 -49.42081446 12.56273297 -47.87109375 10.30859375 C-47.21109375 10.30859375 -46.55109375 10.30859375 -45.87109375 10.30859375 C-45.53851562 9.43074219 -45.53851562 9.43074219 -45.19921875 8.53515625 C-43.46288967 5.62425161 -41.49151656 4.46388331 -38.62109375 2.68359375 C-37.6878125 2.09320313 -36.75453125 1.5028125 -35.79296875 0.89453125 C-25.78080387 -4.5398791 -10.31757179 -5.1857013 0 0 Z " fill="#02A3FC" transform="translate(982.87109375,118.69140625)"/>
<path d="M0 0 C10.13255191 6.60357643 17.60763293 16.00933025 20.83984375 27.81640625 C21.25307706 30.98292665 21.17578125 34.19725481 21.17578125 37.390625 C14.90578125 37.390625 8.63578125 37.390625 2.17578125 37.390625 C1.02078125 34.874375 -0.13421875 32.358125 -1.32421875 29.765625 C-4.41035 23.36542417 -7.30314126 18.70596272 -13.82421875 15.390625 C-14.43080322 15.04878174 -15.0373877 14.70693848 -15.66235352 14.35473633 C-22.47699457 11.31566038 -34.05346142 12.14298205 -41 14.44140625 C-43.09436863 15.63466837 -44.92601898 16.91325254 -46.82421875 18.390625 C-47.51515625 18.69226563 -48.20609375 18.99390625 -48.91796875 19.3046875 C-51.31737716 20.6715636 -51.77485186 21.87495526 -52.82421875 24.390625 C-53.15421875 24.96941406 -53.48421875 25.54820312 -53.82421875 26.14453125 C-60.56367938 38.33347763 -60.47221204 54.2001408 -56.82421875 67.390625 C-53.64124608 75.83943725 -48.92916428 81.61751025 -40.69921875 85.4140625 C-32.38459556 88.2383231 -23.14385168 88.17899014 -14.82421875 85.390625 C-5.08998493 80.33631129 -1.59484044 72.26078177 2.17578125 62.390625 C8.44578125 62.390625 14.71578125 62.390625 21.17578125 62.390625 C21.17578125 74.60847763 17.18791434 83.8842058 8.84765625 92.91015625 C-1.45452691 102.67779218 -13.44457656 107.25042586 -27.63671875 107.828125 C-41.35200667 107.35829959 -53.2340479 103.10833086 -63.82421875 94.390625 C-65.20703125 92.109375 -65.20703125 92.109375 -65.82421875 90.390625 C-66.48421875 90.390625 -67.14421875 90.390625 -67.82421875 90.390625 C-78.35724271 76.6657756 -81.79125429 60.48643181 -80.82421875 43.390625 C-78.55523443 26.6068145 -72.55127794 13.21408043 -59.26171875 2.390625 C-42.25547596 -10.1454054 -17.977704 -10.24455609 0 0 Z " fill="#03A2FC" transform="translate(758.82421875,122.609375)"/>
<path d="M0 0 C4.1117256 -0.02465746 8.22342278 -0.04283959 12.33520508 -0.05493164 C13.73495228 -0.0599708 15.1346942 -0.06680216 16.53442383 -0.07543945 C18.54245777 -0.0875232 20.55052957 -0.09269807 22.55859375 -0.09765625 C24.37315063 -0.10551147 24.37315063 -0.10551147 26.22436523 -0.11352539 C29 0 29 0 30 1 C30.0985491 2.78195872 30.126321 4.56785748 30.12698364 6.35253906 C30.12980347 7.51362183 30.13262329 8.67470459 30.13552856 9.87097168 C30.13350433 11.15620728 30.1314801 12.44144287 30.12939453 13.765625 C30.13074856 15.12373909 30.1325285 16.4818528 30.13470459 17.83996582 C30.13927877 21.53821201 30.13748943 25.23643042 30.1343255 28.93467712 C30.13180182 32.79662147 30.13413946 36.65856337 30.13571167 40.52050781 C30.13753334 47.00716582 30.13512712 53.49381246 30.13037109 59.98046875 C30.12492848 67.49049923 30.12669113 75.00050256 30.1321975 82.51053238 C30.1367287 88.9470353 30.13737915 95.38353003 30.13475883 101.82003403 C30.13319609 105.66929316 30.1330022 109.51853952 30.13629532 113.36779785 C30.13917413 116.98580706 30.13719816 120.60378111 30.13140106 124.2217865 C30.12943791 126.19086661 30.13242729 128.15994967 30.13552856 130.12902832 C30.13129883 131.87065247 30.13129883 131.87065247 30.12698364 133.64746094 C30.12660662 134.66289978 30.12622959 135.67833862 30.12584114 136.72454834 C30 139 30 139 29 140 C26.85441173 140.08775605 24.70595579 140.10695219 22.55859375 140.09765625 C21.25341797 140.09443359 19.94824219 140.09121094 18.60351562 140.08789062 C17.2148431 140.07953401 15.82617123 140.07106905 14.4375 140.0625 C13.04492344 140.05748666 11.65234519 140.05292347 10.25976562 140.04882812 C6.8398013 140.03699434 3.41992156 140.0205088 0 140 C-1.29372473 137.41255055 -1.12587961 135.55293402 -1.12698364 132.65455627 C-1.12980347 131.52023163 -1.13262329 130.38590698 -1.13552856 129.21720886 C-1.13350433 127.96676285 -1.1314801 126.71631683 -1.12939453 125.42797852 C-1.13114685 124.11577332 -1.13289917 122.80356812 -1.13470459 121.45159912 C-1.13927354 117.84624986 -1.13749145 114.24092913 -1.1343255 110.63557935 C-1.13179861 106.86666615 -1.13414041 103.09775545 -1.13571167 99.32884216 C-1.13753262 92.99778809 -1.13512924 86.66674567 -1.13037109 80.33569336 C-1.12493096 73.01256582 -1.12668962 65.68946613 -1.1321975 58.36633927 C-1.13673354 52.08434834 -1.13737669 45.8023658 -1.13475883 39.52037376 C-1.13319847 35.76608094 -1.13299569 32.01180121 -1.13629532 28.25750923 C-1.13971663 24.07212802 -1.13497623 19.8867949 -1.12939453 15.70141602 C-1.13141876 14.45299423 -1.13344299 13.20457245 -1.13552856 11.9183197 C-1.13270874 10.78117523 -1.12988892 9.64403076 -1.12698364 8.47242737 C-1.12660662 7.48225396 -1.12622959 6.49208055 -1.12584114 5.47190189 C-1 3 -1 3 0 0 Z " fill="#F1F1F1" transform="translate(179,89)"/>
<path d="M0 0 C1.83034055 1.83034055 1.13042797 4.73211992 1.1328125 7.1875 C1.13410156 8.44304687 1.13539063 9.69859375 1.13671875 10.9921875 C1.13462402 11.64928711 1.1325293 12.30638672 1.13037109 12.98339844 C1.12502234 14.99161335 1.13031691 16.99960459 1.13671875 19.0078125 C1.13542969 20.26335937 1.13414062 21.51890625 1.1328125 22.8125 C1.13168457 23.97394531 1.13055664 25.13539063 1.12939453 26.33203125 C1 29 1 29 0 30 C-1.39235667 30.16637403 -2.79164322 30.27570371 -4.19140625 30.359375 C-5.48594727 30.45605469 -5.48594727 30.45605469 -6.80664062 30.5546875 C-8.61562254 30.68289316 -10.42559693 30.7979148 -12.23632812 30.8984375 C-18.46166917 31.39536051 -23.2464092 32.79614419 -28 37 C-29.75188286 39.57174508 -30.97425558 42.06494914 -32 45 C-32.33845947 45.96711914 -32.67691895 46.93423828 -33.02563477 47.93066406 C-34.45695704 53.00700065 -34.3362103 58.12772286 -34.37890625 63.3671875 C-34.39590073 64.4425174 -34.4128952 65.51784729 -34.43040466 66.62576294 C-34.48331616 70.04211653 -34.52376316 73.45845861 -34.5625 76.875 C-34.60639735 80.31290635 -34.65300024 83.75071813 -34.70530701 87.18850708 C-34.73732836 89.32407493 -34.76419821 91.45972717 -34.78553772 93.59542847 C-34.79902756 94.55377594 -34.8125174 95.51212341 -34.82641602 96.49951172 C-34.83592789 97.34665741 -34.84543976 98.1938031 -34.85523987 99.06661987 C-35 101 -35 101 -36 102 C-38.13353174 102.10003289 -40.27037542 102.13081048 -42.40625 102.1328125 C-43.70691406 102.13410156 -45.00757813 102.13539063 -46.34765625 102.13671875 C-47.02844238 102.13462402 -47.70922852 102.1325293 -48.41064453 102.13037109 C-50.49128515 102.1250224 -52.57170989 102.1303168 -54.65234375 102.13671875 C-56.60333984 102.13478516 -56.60333984 102.13478516 -58.59375 102.1328125 C-59.79708984 102.13168457 -61.00042969 102.13055664 -62.24023438 102.12939453 C-65 102 -65 102 -66 101 C-66.10064199 97.96134239 -66.1361459 94.9453727 -66.12939453 91.90625 C-66.13114685 90.95186035 -66.13289917 89.9974707 -66.13470459 89.01416016 C-66.13912487 85.84275523 -66.1361845 82.67140555 -66.1328125 79.5 C-66.13348549 77.30664052 -66.13445547 75.1132811 -66.13571167 72.91992188 C-66.13718888 68.31639905 -66.13503334 63.71289558 -66.13037109 59.109375 C-66.1246738 53.19395405 -66.12795268 47.27857846 -66.13394356 41.36315918 C-66.13754854 36.83202774 -66.13641087 32.30090715 -66.13381577 27.76977539 C-66.13314632 25.58797195 -66.13397552 23.40616754 -66.13629532 21.22436523 C-66.13882082 18.1808001 -66.1349827 15.13730954 -66.12939453 12.09375 C-66.13141876 11.18254395 -66.13344299 10.27133789 -66.13552856 9.33251953 C-66.11426229 3.11426229 -66.11426229 3.11426229 -65 2 C-62.85441173 1.91224395 -60.70595579 1.89304781 -58.55859375 1.90234375 C-57.25341797 1.90556641 -55.94824219 1.90878906 -54.60351562 1.91210938 C-53.2148431 1.92046599 -51.82617123 1.92893095 -50.4375 1.9375 C-49.04492344 1.94251334 -47.65234519 1.94707653 -46.25976562 1.95117188 C-42.83982549 1.96300558 -39.4199075 1.98094169 -36 2 C-35.505 8.93 -35.505 8.93 -35 16 C-33.700625 14.1746875 -33.700625 14.1746875 -32.375 12.3125 C-23.78831516 1.01002647 -13.75733369 -1.07900656 0 0 Z " fill="#F1F1F1" transform="translate(527,127)"/>
<path d="M0 0 C2.5 0.125 2.5 0.125 3.5 1.125 C3.80086882 3.2668285 4.06502336 5.4138477 4.3125 7.5625 C6.03183403 19.84701708 10.49424973 29.64308574 20.4375 37.4375 C21.77665012 38.35562944 23.13039757 39.25294845 24.5 40.125 C25.3353125 40.69347656 25.3353125 40.69347656 26.1875 41.2734375 C33.12185255 45.39070933 41.65877343 45.94881602 49.5 47.125 C49.88218767 48.78114657 50.21395102 50.44957024 50.5 52.125 C48.71288469 53.91211531 46.2367374 53.42396843 43.8125 53.5 C29.73576614 53.34564985 19.88624013 47.25082782 10.0625 37.7734375 C0.61721768 27.98638509 -3.77129018 16.66401327 -3.66796875 3.12890625 C-3.41567453 0.11897753 -3.04066871 0.15203344 0 0 Z " fill="#0597F0" transform="translate(522.5,209.875)"/>
<path d="M0 0 C12.71992355 -1.16815624 23.64644717 3.08458038 33.59765625 10.90234375 C43.86641805 19.868726 49.08701004 30.48621772 51 44 C50.95400975 46.55036862 50.63479557 48.51852642 50 51 C48.33388095 51.042721 46.66617115 51.04063832 45 51 C43.14544263 49.14544263 43.47312494 45.99855086 43.1875 43.5 C41.62518341 32.32604006 37.3748501 23.36610547 28.60546875 15.984375 C19.43781204 9.28114214 11.17658731 7.44818586 0 6 C-1.125 2.25 -1.125 2.25 0 0 Z " fill="#049BF4" transform="translate(989,53)"/>
<path d="M0 0 C1.67542976 0.28604898 3.34385343 0.61781233 5 1 C5.78758912 14.65154468 0.70399182 25.59725912 -7.7265625 36.1640625 C-15.6631423 44.70246826 -27.22318328 50.24839415 -38.828125 51.2421875 C-40.8869898 51.24866192 -42.94584045 51.13926505 -45 51 C-45.66 49.68 -46.32 48.36 -47 47 C-44.36992886 44.36992886 -42.79226132 44.61936445 -39.125 44.25 C-27.43936183 42.56221764 -17.72992245 36.92868048 -10 28 C-4.9095179 20.50956544 -3.00996099 12.73231211 -1.54296875 3.95703125 C-1 1 -1 1 0 0 Z " fill="#0499F1" transform="translate(1034,217)"/>
<path d="M0 0 C0.96679688 0.01804688 1.93359375 0.03609375 2.9296875 0.0546875 C4.01636719 0.08949219 4.01636719 0.08949219 5.125 0.125 C5.62 2.6 5.62 2.6 6.125 5.125 C3.59463534 6.39018233 1.30208344 6.59564872 -1.5 7 C-12.72700144 8.86001573 -21.0086936 12.95709492 -28.25 22.0625 C-33.38772147 29.48523018 -34.62473885 37.29962719 -35.875 46.125 C-37.53114657 46.50718767 -39.19957024 46.83895102 -40.875 47.125 C-41.875 46.125 -41.875 46.125 -42.125 42.6875 C-41.89842939 31.09120422 -35.89609083 20.16521166 -28.1875 11.75 C-20.87256549 4.90561683 -10.08935067 -0.24608172 0 0 Z " fill="#039BF3" transform="translate(567.875,54.875)"/>
<path d="M0 0 C1.65 0 3.3 0 5 0 C4.01 0.33 3.02 0.66 2 1 C2 35.65 2 70.3 2 106 C7.94 106 13.88 106 20 106 C20 86.2 20 66.4 20 46 C20.33 46 20.66 46 21 46 C21 66.46 21 86.92 21 108 C14.07 108 7.14 108 0 108 C0 72.36 0 36.72 0 0 Z " fill="#1DA4F7" transform="translate(906,119)"/>
<path d="M0 0 C0.66 0 1.32 0 2 0 C1.67 1.65 1.34 3.3 1 5 C1.99 5.66 2.98 6.32 4 7 C4.2487793 9.70556641 4.2487793 9.70556641 4.07421875 13.1015625 C4.01943359 14.31328125 3.96464844 15.525 3.90820312 16.7734375 C3.79895508 18.67996094 3.79895508 18.67996094 3.6875 20.625 C3.62626953 21.90375 3.56503906 23.1825 3.50195312 24.5 C3.34831254 27.66735972 3.17590009 30.83379847 3 34 C8.94 34 14.88 34 21 34 C21 34.66 21 35.32 21 36 C14.73 36 8.46 36 2 36 C1.505 24.12 1.505 24.12 1 12 C-0.32 14.64 -1.64 17.28 -3 20 C-9.19545134 28.41814935 -16.0726603 33.85634243 -26 37 C-26.99 37 -27.98 37 -29 37 C-29 36.34 -29 35.68 -29 35 C-28.26394531 34.75765625 -27.52789063 34.5153125 -26.76953125 34.265625 C-19.86885745 31.89551247 -15.43839886 29.49510581 -10.3125 24.25 C-8 22 -8 22 -6 22 C-6.33 20.68 -6.66 19.36 -7 18 C-6.34 18 -5.68 18 -5 18 C-5.33 17.34 -5.66 16.68 -6 16 C-9.96 16.495 -9.96 16.495 -14 17 C-11.57757036 14.50835808 -9.28001499 12.19805938 -6.4375 10.1875 C-3.1851281 7.26870471 -1.72174386 3.96289648 0 0 Z " fill="#0CA0F5" transform="translate(870,191)"/>
<path d="M0 0 C4.62 0 9.24 0 14 0 C14.33 7.59 14.66 15.18 15 23 C16.32 20.36 17.64 17.72 19 15 C20.625 12 20.625 12 22 10 C22.66 10 23.32 10 24 10 C24 9.34 24 8.68 24 8 C24.66 8 25.32 8 26 8 C24.74194623 12.50802601 23.09592835 15.4912812 20 19 C20.66 19.99 21.32 20.98 22 22 C21.6240992 25.30792702 20.07617396 27.89282489 18.4375 30.75 C17.98246094 31.54921875 17.52742187 32.3484375 17.05859375 33.171875 C16.70925781 33.77515625 16.35992188 34.3784375 16 35 C13.13548192 32.7103679 12.08373537 31.57462274 11.54589844 27.88378906 C11.5668457 26.68979492 11.58779297 25.49580078 11.609375 24.265625 C11.62226562 22.97011719 11.63515625 21.67460937 11.6484375 20.33984375 C11.68185634 18.97655176 11.71571609 17.61327051 11.75 16.25 C11.77007293 14.87111936 11.78832233 13.49221088 11.8046875 12.11328125 C11.85184552 8.74148256 11.91765462 5.37109313 12 2 C8.04 1.67 4.08 1.34 0 1 C0 0.67 0 0.34 0 0 Z " fill="#14A2F3" transform="translate(913,119)"/>
<path d="M0 0 C0 0.66 0 1.32 0 2 C-1.71951974 3.53851766 -3.50187497 5.00731759 -5.3125 6.4375 C-12.21875717 11.4388922 -12.21875717 11.4388922 -15 19 C-15.99 19 -16.98 19 -18 19 C-18.19335938 19.63808594 -18.38671875 20.27617188 -18.5859375 20.93359375 C-18.84632813 21.75988281 -19.10671875 22.58617188 -19.375 23.4375 C-19.75785156 24.67306641 -19.75785156 24.67306641 -20.1484375 25.93359375 C-21 28 -21 28 -23 29 C-21.79662881 22.10796502 -19.67864914 16.93919307 -16 11 C-15.34 11 -14.68 11 -14 11 C-13.6596875 10.12601563 -13.6596875 10.12601563 -13.3125 9.234375 C-11.6404838 6.38796646 -9.72023189 5.1003903 -7 3.25 C-6.113125 2.63640625 -5.22625 2.0228125 -4.3125 1.390625 C-2 0 -2 0 0 0 Z " fill="#0971F6" transform="translate(576,91)"/>
<path d="M0 0 C0.99 0.33 1.98 0.66 3 1 C3.68132451 2.66072849 4.34742127 4.327767 5 6 C5.99 6.66 6.98 7.32 8 8 C8.1875 10.625 8.1875 10.625 8 13 C8.66 13 9.32 13 10 13 C10.33 13.99 10.66 14.98 11 16 C11.66 16.66 12.32 17.32 13 18 C12.01 18.33 11.02 18.66 10 19 C5.84016104 15.19671867 2.50143634 11.08802795 0 6 C0 5.01 0 4.02 0 3 C-0.66 2.67 -1.32 2.34 -2 2 C-1.34 1.34 -0.68 0.68 0 0 Z " fill="#029FFA" transform="translate(524,227)"/>
<path d="M0 0 C0.99 0 1.98 0 3 0 C2.67 8.91 2.34 17.82 2 27 C7.94 27 13.88 27 20 27 C20 27.66 20 28.32 20 29 C13.73 29 7.46 29 1 29 C0.67 19.43 0.34 9.86 0 0 Z " fill="#1E9EF3" transform="translate(871,198)"/>
<path d="M0 0 C0.66 0 1.32 0 2 0 C2.81752303 1.58074564 3.62881997 3.16471223 4.4375 4.75 C4.88996094 5.63171875 5.34242188 6.5134375 5.80859375 7.421875 C6.83455398 9.64198566 7.51508603 11.61444619 8 14 C8.66 14 9.32 14 10 14 C10 14.99 10 15.98 10 17 C10.763125 17.103125 11.52625 17.20625 12.3125 17.3125 C15.17059424 18.04364039 16.15742885 18.76951913 18 21 C17.67 21.66 17.34 22.32 17 23 C11.71154438 21.55769392 8.33402847 18.18931368 5 14 C2.49528379 9.59982287 0.65149105 5.04905562 0 0 Z " fill="#0C6EF6" transform="translate(552,131)"/>
<path d="M0 0 C1.03925743 3.11777229 0.78011624 4.73128519 0.26220703 7.89111328 C-0.2553765 12.0539499 -0.10169695 16.24945626 -0.0625 20.4375 C-0.05798828 21.35982422 -0.05347656 22.28214844 -0.04882812 23.23242188 C-0.03713938 25.48835048 -0.02075455 27.74413967 0 30 C-0.66 30 -1.32 30 -2 30 C-3.49265113 24.89163334 -3.22406692 19.71812309 -3.25 14.4375 C-3.270625 13.38369141 -3.29125 12.32988281 -3.3125 11.24414062 C-3.31765625 10.23416016 -3.3228125 9.22417969 -3.328125 8.18359375 C-3.3374707 7.26118896 -3.34681641 6.33878418 -3.35644531 5.38842773 C-2.93907737 2.59177662 -2.17695125 1.73042478 0 0 Z " fill="#11A5F2" transform="translate(700,156)"/>
<path d="M0 0 C3.9425368 1.3537206 6.59534929 3.09258934 9.6875 5.875 C10.83798828 6.89207031 10.83798828 6.89207031 12.01171875 7.9296875 C13.89607506 9.89178739 14.95600685 11.51004843 16 14 C14.68 14.33 13.36 14.66 12 15 C11.731875 14.38125 11.46375 13.7625 11.1875 13.125 C10.04443152 10.7004767 10.04443152 10.7004767 7 9 C6.34 8.01 5.68 7.02 5 6 C4.01 6.495 4.01 6.495 3 7 C2.01 7 1.02 7 0 7 C-0.33 6.34 -0.66 5.68 -1 5 C-0.01 4.34 0.98 3.68 2 3 C1.34 2.01 0.68 1.02 0 0 Z " fill="#0394EC" transform="translate(1015,60)"/>
<path d="M0 0 C1.18613892 0.00785522 1.18613892 0.00785522 2.39624023 0.01586914 C3.67724609 0.02070313 3.67724609 0.02070313 4.98413086 0.02563477 C5.88196289 0.03401367 6.77979492 0.04239258 7.70483398 0.05102539 C8.6065332 0.05553711 9.50823242 0.06004883 10.43725586 0.06469727 C12.67234712 0.07652315 14.90730835 0.09300319 17.14233398 0.11352539 C17.47233398 0.77352539 17.80233398 1.43352539 18.14233398 2.11352539 C11.87233398 2.11352539 5.60233398 2.11352539 -0.85766602 2.11352539 C-0.19766602 5.74352539 0.46233398 9.37352539 1.14233398 13.11352539 C0.15233398 13.11352539 -0.83766602 13.11352539 -1.85766602 13.11352539 C-2.05164078 11.13498281 -2.23767922 9.15566059 -2.42016602 7.17602539 C-2.52458008 6.07387695 -2.62899414 4.97172852 -2.73657227 3.83618164 C-2.7765332 2.93770508 -2.81649414 2.03922852 -2.85766602 1.11352539 C-1.85766602 0.11352539 -1.85766602 0.11352539 0 0 Z " fill="#0448F8" transform="translate(552.857666015625,181.886474609375)"/>
<path d="M0 0 C-0.33 0.99 -0.66 1.98 -1 3 C-2.65 3 -4.3 3 -6 3 C-6 3.66 -6 4.32 -6 5 C-8.97 4.67 -11.94 4.34 -15 4 C-14.34 2.68 -13.68 1.36 -13 0 C-8.48247007 -1.36576486 -4.59255685 -0.82666023 0 0 Z " fill="#029CF5" transform="translate(1002,262)"/>
<path d="M0 0 C5.02265357 1.18180084 8.0949151 2.44992282 12 6 C11.34 7.32 10.68 8.64 10 10 C7.53199953 8.84826645 5.95216435 7.95216435 4 6 C3.01 5.67 2.02 5.34 1 5 C1 4.34 1 3.68 1 3 C0.34 2.67 -0.32 2.34 -1 2 C-0.67 1.34 -0.34 0.68 0 0 Z " fill="#02A0F9" transform="translate(537,246)"/>
<path d="M0 0 C0.66 0 1.32 0 2 0 C3.21033415 2.42066831 3.12922803 3.98166942 3.1328125 6.68359375 C3.13410156 7.61107422 3.13539063 8.53855469 3.13671875 9.49414062 C3.13285156 10.46544922 3.12898437 11.43675781 3.125 12.4375 C3.12886719 13.40494141 3.13273438 14.37238281 3.13671875 15.36914062 C3.13542969 16.29791016 3.13414062 17.22667969 3.1328125 18.18359375 C3.13168457 19.03493896 3.13055664 19.88628418 3.12939453 20.76342773 C3 23 3 23 2 26 C1.34 26 0.68 26 0 26 C0.165 24.700625 0.33 23.40125 0.5 22.0625 C0.85861271 18.72951124 1.1412005 15.41352469 1.25 12.0625 C1.27578125 11.33160156 1.3015625 10.60070312 1.328125 9.84765625 C1.21984375 9.23792969 1.1115625 8.62820312 1 8 C0.01 7.34 -0.98 6.68 -2 6 C-1.67 5.38125 -1.34 4.7625 -1 4.125 C0.14193235 2.08981656 0.14193235 2.08981656 0 0 Z " fill="#18A1F3" transform="translate(665,174)"/>
<path d="M0 0 C0.66 0 1.32 0 2 0 C1.67 0.7425 1.34 1.485 1 2.25 C-0.61583289 8.30937334 -1.4882814 15.18795159 1.51953125 20.87109375 C2.00808594 21.57363281 2.49664063 22.27617187 3 23 C1.125 22.8125 1.125 22.8125 -1 22 C-2.25 19.4375 -2.25 19.4375 -3 17 C-3.66 17 -4.32 17 -5 17 C-4.74273307 15.10227809 -4.46856661 13.20684323 -4.1875 11.3125 C-4.03667969 10.25675781 -3.88585937 9.20101562 -3.73046875 8.11328125 C-2.96935985 4.86941068 -1.97108221 2.67610405 0 0 Z " fill="#0F73F4" transform="translate(575,114)"/>
<path d="M0 0 C6.01580176 5.20921382 6.39728694 14.52635802 7 22 C6.01 21.67 5.02 21.34 4 21 C4 18.69 4 16.38 4 14 C3.34 14 2.68 14 2 14 C2.04125 13.0925 2.0825 12.185 2.125 11.25 C2.00096751 8.02515524 1.46866102 6.75373941 0 4 C0 2.68 0 1.36 0 0 Z " fill="#0E9EF7" transform="translate(657,107)"/>
<path d="M0 0 C0.66 0 1.32 0 2 0 C2.14695312 0.61746094 2.29390625 1.23492187 2.4453125 1.87109375 C4.20210827 8.50451227 6.90599015 13.51482176 11 19 C10.01 19 9.02 19 8 19 C6.61328125 17.5390625 6.61328125 17.5390625 5.3125 15.625 C4.87550781 14.99851563 4.43851563 14.37203125 3.98828125 13.7265625 C3 12 3 12 3 10 C2.34 10 1.68 10 1 10 C-0.1577506 6.52674819 -0.06866652 3.63932552 0 0 Z " fill="#0E76F3" transform="translate(569,184)"/>
<path d="M0 0 C0.66 0.33 1.32 0.66 2 1 C1.49339844 1.74830078 1.49339844 1.74830078 0.9765625 2.51171875 C-3.11281926 9.09491424 -4.2084308 15.35604071 -5 23 C-5.66 23 -6.32 23 -7 23 C-7.56020752 14.41015135 -5.21610065 6.8348905 0 0 Z " fill="#159FF2" transform="translate(799,133)"/>
<path d="M0 0 C-0.33 0.66 -0.66 1.32 -1 2 C-1.99 2.33 -2.98 2.66 -4 3 C-3.01 3.66 -2.02 4.32 -1 5 C-5.625 7.125 -5.625 7.125 -9 6 C-8.67 5.01 -8.34 4.02 -8 3 C-8.99 2.67 -9.98 2.34 -11 2 C-3.57142857 -1.57142857 -3.57142857 -1.57142857 0 0 Z " fill="#058EEC" transform="translate(566,56)"/>
<path d="M0 0 C0.66 0 1.32 0 2 0 C2 0.66 2 1.32 2 2 C2.639375 2.268125 3.27875 2.53625 3.9375 2.8125 C6 4 6 4 7 7 C9.3430809 8.12085312 9.3430809 8.12085312 12 9 C13.34050052 9.65213539 14.67661368 10.31379969 16 11 C16 11.66 16 12.32 16 13 C9.76150039 12.04023083 5.07100497 7.53626269 1 3 C0.67 2.01 0.34 1.02 0 0 Z " fill="#0E6FF5" transform="translate(559,209)"/>
<path d="M0 0 C1.9765625 1.1953125 1.9765625 1.1953125 4 3 C4.99142678 7.95713389 4.56148198 13.58855882 2 18 C1.34 18.33 0.68 18.66 0 19 C0.09539063 18.28714844 0.19078125 17.57429688 0.2890625 16.83984375 C0.97119249 10.94655793 1.10358772 6.56832045 -1 1 C-0.67 0.67 -0.34 0.34 0 0 Z " fill="#109FF6" transform="translate(646,176)"/>
<path d="M0 0 C0.33 0.99 0.66 1.98 1 3 C-0.26220093 5.04563599 -1.60287726 7.04402816 -3 9 C-4.93931909 12.5364054 -6.42975526 16.28851242 -8 20 C-8.33 20 -8.66 20 -9 20 C-8.67149778 12.60869995 -5.24546655 5.24546655 0 0 Z " fill="#0C9DF6" transform="translate(691,133)"/>
<path d="M0 0 C0.556875 0.33 1.11375 0.66 1.6875 1 C4.30284522 2.1309601 6.1806646 2.15662974 9 2 C8.67 2.99 8.34 3.98 8 5 C8.99 5.33 9.98 5.66 11 6 C11 6.66 11 7.32 11 8 C11.99 8.33 12.98 8.66 14 9 C14 9.99 14 10.98 14 12 C10.63983107 10.87994369 9.30935087 9.62788203 7 7 C7 6.34 7 5.68 7 5 C5.5459375 4.5978125 5.5459375 4.5978125 4.0625 4.1875 C3.051875 3.795625 2.04125 3.40375 1 3 C0.67 2.01 0.34 1.02 0 0 Z " fill="#0C96F6" transform="translate(627,105)"/>
<path d="M0 0 C-0.33 0.99 -0.66 1.98 -1 3 C-3.0625 3.6875 -3.0625 3.6875 -5 4 C-5 4.66 -5 5.32 -5 6 C-6.65 6 -8.3 6 -10 6 C-10 5.01 -10 4.02 -10 3 C-6.62637846 0.39749195 -4.23092172 -0.36265043 0 0 Z " fill="#02A0FB" transform="translate(1015,258)"/>
<path d="M0 0 C0 0.33 0 0.66 0 1 C-6.6 1 -13.2 1 -20 1 C-19.67 0.34 -19.34 -0.32 -19 -1 C-16.015625 -1.484375 -16.015625 -1.484375 -12.25 -1.75 C-11.01765625 -1.84796875 -9.7853125 -1.9459375 -8.515625 -2.046875 C-5.09135057 -2.00121801 -3.03565554 -1.5062413 0 0 Z " fill="#10A0F0" transform="translate(742,134)"/>
<path d="M0 0 C0.99 0.99 1.98 1.98 3 3 C1.35 5.31 -0.3 7.62 -2 10 C-2.99 9.67 -3.98 9.34 -5 9 C-3.90931332 5.22454612 -3.0916909 2.52956528 0 0 Z " fill="#02A1FA" transform="translate(1022,247)"/>
<path d="M0 0 C0.99 0 1.98 0 3 0 C3 9.24 3 18.48 3 28 C2.34 28.33 1.68 28.66 1 29 C0.67 19.43 0.34 9.86 0 0 Z " fill="#1DAFFC" transform="translate(871,198)"/>
<path d="M0 0 C0.66 0.66 1.32 1.32 2 2 C1.74964126 6.50645731 1.25629805 9.74370195 -2 13 C-2.66 13 -3.32 13 -4 13 C-4.33 14.32 -4.66 15.64 -5 17 C-6 14 -6 14 -5.0390625 11.66015625 C-4.33910156 10.37431641 -4.33910156 10.37431641 -3.625 9.0625 C-1.99409074 6.04212893 -0.67373072 3.37648767 0 0 Z " fill="#0FA2F6" transform="translate(760,186)"/>
<path d="M0 0 C1.37562854 1.28965176 2.70766393 2.62689293 4 4 C4 4.66 4 5.32 4 6 C3.34 6 2.68 6 2 6 C1.67 6.66 1.34 7.32 1 8 C-0.32 7.34 -1.64 6.68 -3 6 C-2.42655063 3.13275314 -2.1385485 2.1385485 0 0 Z " fill="#01A2FB" transform="translate(551,253)"/>
<path d="M0 0 C0.33 1.32 0.66 2.64 1 4 C-1.95664519 5.4783226 -4.74229737 5.06032783 -8 5 C-7.25 3.0625 -7.25 3.0625 -6 1 C-3.86997684 0.20124132 -2.26695035 0 0 0 Z " fill="#029EF8" transform="translate(572,257)"/>
<path d="M0 0 C0.67578125 1.70703125 0.67578125 1.70703125 1 4 C-0.14453125 6.32421875 -0.14453125 6.32421875 -1.8125 8.6875 C-2.62654297 9.86892578 -2.62654297 9.86892578 -3.45703125 11.07421875 C-5 13 -5 13 -7 14 C-6.690625 13.46375 -6.38125 12.9275 -6.0625 12.375 C-4.82172561 9.6015043 -4.4090325 6.99957163 -4 4 C-3.34 4 -2.68 4 -2 4 C-1.34 2.68 -0.68 1.36 0 0 Z " fill="#0FA2F4" transform="translate(776,198)"/>
<path d="M0 0 C0.2475 0.598125 0.495 1.19625 0.75 1.8125 C2.16444091 4.28777159 3.72860188 5.33430804 6 7 C6 7.66 6 8.32 6 9 C4.35 9.66 2.7 10.32 1 11 C0.63890458 9.35567294 0.28629924 7.7094792 -0.0625 6.0625 C-0.25972656 5.14597656 -0.45695313 4.22945312 -0.66015625 3.28515625 C-0.77230469 2.53105469 -0.88445313 1.77695313 -1 1 C-0.67 0.67 -0.34 0.34 0 0 Z " fill="#0492EA" transform="translate(520,218)"/>
<path d="M0 0 C0.86625 0.763125 1.7325 1.52625 2.625 2.3125 C5.53600655 4.75220073 8.52943561 6.42998277 12 8 C10.02 8.99 10.02 8.99 8 10 C6.84481082 9.09515208 5.70114594 8.1755794 4.5625 7.25 C3.60537109 6.48429688 3.60537109 6.48429688 2.62890625 5.703125 C0.81189446 3.80332371 0.39576803 2.56413092 0 0 Z " fill="#0DA4F7" transform="translate(794,213)"/>
<path d="M0 0 C7.75 0.75 7.75 0.75 10 3 C11.98356483 3.71408334 13.98315437 4.38617742 16 5 C15.67 5.66 15.34 6.32 15 7 C12.68418241 6.21710425 10.37267059 5.42424269 8.0625 4.625 C7.40314453 4.40328125 6.74378906 4.1815625 6.06445312 3.953125 C1.11328125 2.2265625 1.11328125 2.2265625 0 0 Z " fill="#0A6AF4" transform="translate(569,154)"/>
<path d="M0 0 C0.66 0.33 1.32 0.66 2 1 C1.401875 1.61875 0.80375 2.2375 0.1875 2.875 C-2.68944158 6.98491654 -3.76502183 11.18171396 -5 16 C-5.33 16 -5.66 16 -6 16 C-5.85851011 14.3954444 -5.71164314 12.79136233 -5.5625 11.1875 C-5.48128906 10.29417969 -5.40007813 9.40085938 -5.31640625 8.48046875 C-4.89402865 5.16923696 -4.56924037 3.46574212 -1.9375 1.3125 C-0.9784375 0.6628125 -0.9784375 0.6628125 0 0 Z " fill="#159BF1" transform="translate(817,140)"/>
<path d="M0 0 C1.67542976 0.28604898 3.34385343 0.61781233 5 1 C3.68 2.65 2.36 4.3 1 6 C1.33 6.66 1.66 7.32 2 8 C1.01 8 0.02 8 -1 8 C-1.04241723 5.66705225 -1.04092937 3.33297433 -1 1 C-0.67 0.67 -0.34 0.34 0 0 Z " fill="#0494EF" transform="translate(1034,217)"/>
<path d="M0 0 C0.99 0 1.98 0 3 0 C1.49860488 4.20390632 -1.17275043 5.89110738 -5 8 C-5.99 7.67 -6.98 7.34 -8 7 C-6.68 6.34 -5.36 5.68 -4 5 C-4 4.34 -4 3.68 -4 3 C-2.68 3 -1.36 3 0 3 C0 2.01 0 1.02 0 0 Z " fill="#0E99F5" transform="translate(653,214)"/>
<path d="M0 0 C0.99 0.495 0.99 0.495 2 1 C2.40729228 3.32156597 2.74438677 5.6568787 3 8 C4.65 8.33 6.3 8.66 8 9 C8 9.33 8 9.66 8 10 C5.69 10 3.38 10 1 10 C0.67 6.7 0.34 3.4 0 0 Z " fill="#0B9CF3" transform="translate(642,120)"/>
<path d="M0 0 C1.58409994 0.11487748 3.16728963 0.24234508 4.75 0.375 C6.07257812 0.47941406 6.07257812 0.47941406 7.421875 0.5859375 C9.99066382 0.99850055 11.75841015 1.71160957 14 3 C13.67 3.66 13.34 4.32 13 5 C11.20620902 4.55005243 9.41501072 4.08975857 7.625 3.625 C6.62726562 3.36976563 5.62953125 3.11453125 4.6015625 2.8515625 C2 2 2 2 0 0 Z " fill="#1C99F2" transform="translate(625,148)"/>
<path d="M0 0 C3.36938898 1.12312966 4.53174093 2.53174093 7 5 C7.71408334 6.98356483 8.38617742 8.98315437 9 11 C4.40964546 9.46988182 2.93296647 5.77263629 0.75 1.625 C0.5025 1.08875 0.255 0.5525 0 0 Z " fill="#14A1F4" transform="translate(750,139)"/>
<path d="M0 0 C3.21043882 1.38188453 5.04936365 2.92421903 7.25 5.625 C8.03117188 6.57246094 8.03117188 6.57246094 8.828125 7.5390625 C9.40820312 8.26222656 9.40820312 8.26222656 10 9 C9.67 9.66 9.34 10.32 9 11 C7.29115995 9.37660195 5.62553283 7.70680947 4 6 C4 5.34 4 4.68 4 4 C2.68 3.34 1.36 2.68 0 2 C0 1.34 0 0.68 0 0 Z " fill="#0C9AF6" transform="translate(647,96)"/>
<path d="M0 0 C0.66 0.33 1.32 0.66 2 1 C1.34 1.66 0.68 2.32 0 3 C-0.64767793 5.57061311 -0.64767793 5.57061311 -1 8 C-2.65 7.67 -4.3 7.34 -6 7 C-4.19587357 3.73539027 -3.16605307 2.11070205 0 0 Z " fill="#0492F8" transform="translate(1018,251)"/>
<path d="M0 0 C4.92127034 -0.16682272 8.50343896 -0.24828052 13 2 C13 2.33 13 2.66 13 3 C8.71 2.67 4.42 2.34 0 2 C0 1.34 0 0.68 0 0 Z " fill="#0E85F1" transform="translate(598,144)"/>
<path d="M0 0 C0.66 0.66 1.32 1.32 2 2 C-0.19471406 6.51135667 -2.41173718 8.06273348 -7 10 C-5.76551991 6.29655972 -3.76665659 4.69749018 -1 2 C-0.67 1.34 -0.34 0.68 0 0 Z " fill="#079EF7" transform="translate(645,195)"/>
<path d="M0 0 C1.98 0.99 1.98 0.99 4 2 C3.125 6.75 3.125 6.75 2 9 C1.34 9 0.68 9 0 9 C0 6.03 0 3.06 0 0 Z " fill="#066AFC" transform="translate(552,121)"/>
<path d="M0 0 C0.66 0 1.32 0 2 0 C3.60725635 3.21451269 3.05748185 6.43612536 3 10 C2.54625 9.525625 2.0925 9.05125 1.625 8.5625 C0.06741796 6.90972192 0.06741796 6.90972192 -2 6 C-1.67 5.38125 -1.34 4.7625 -1 4.125 C0.14193235 2.08981656 0.14193235 2.08981656 0 0 Z " fill="#0DA3F7" transform="translate(665,174)"/>
<path d="M0 0 C0 0.66 0 1.32 0 2 C-1.4562545 2.67119549 -2.91507867 3.33681807 -4.375 4 C-5.59316406 4.556875 -5.59316406 4.556875 -6.8359375 5.125 C-9 6 -9 6 -11 6 C-10.67 5.01 -10.34 4.02 -10 3 C-6.5065403 1.25327015 -3.93154432 0 0 0 Z " fill="#0F7CF3" transform="translate(592,104)"/>
<path d="M0 0 C2.9375 0.8125 2.9375 0.8125 6 2 C6.33 2.99 6.66 3.98 7 5 C4.36 4.34 1.72 3.68 -1 3 C-0.67 2.01 -0.34 1.02 0 0 Z " fill="#0995F1" transform="translate(638,90)"/>
<path d="M0 0 C0.66 0 1.32 0 2 0 C0.79157144 4.43090471 -0.51668565 6.98112756 -4 10 C-3.43697042 6.05879291 -2.3208055 3.2491277 0 0 Z " fill="#0F9FF6" transform="translate(664,201)"/>
<path d="M0 0 C7.71428571 4 7.71428571 4 9 8 C5.56247993 6.4722133 2.81046312 4.49818944 0 2 C0 1.34 0 0.68 0 0 Z " fill="#0C9EF6" transform="translate(871,123)"/>
<path d="M0 0 C1.33897583 0.95043374 2.67105427 1.91059147 4 2.875 C5.11375 3.67550781 5.11375 3.67550781 6.25 4.4921875 C6.8275 4.98976562 7.405 5.48734375 8 6 C8 6.66 8 7.32 8 8 C5.04987143 6.63029745 2.4347778 5.17390875 0 3 C0 2.01 0 1.02 0 0 Z " fill="#0D9AF3" transform="translate(706,200)"/>
<path d="M0 0 C3.16115776 1.36983503 3.9927092 1.9890638 6 5 C5.01 5.66 4.02 6.32 3 7 C2.71125 6.38125 2.4225 5.7625 2.125 5.125 C1.06279958 2.86674235 1.06279958 2.86674235 -1 1 C-0.67 0.67 -0.34 0.34 0 0 Z " fill="#0A9DF5" transform="translate(655,159)"/>
<path d="M0 0 C0.66 0 1.32 0 2 0 C0.375 5.75 0.375 5.75 -3 8 C-3.33 7.34 -3.66 6.68 -4 6 C-3.0625 3.875 -3.0625 3.875 -2 2 C-1.34 2 -0.68 2 0 2 C0 1.34 0 0.68 0 0 Z " fill="#0E9CEA" transform="translate(937,127)"/>
<path d="M0 0 C3.3 0.99 6.6 1.98 10 3 C10 3.33 10 3.66 10 4 C4.62295082 5.3442623 4.62295082 5.3442623 1.625 3.6875 C0 2 0 2 0 0 Z " fill="#0192E9" transform="translate(552,253)"/>
<path d="M0 0 C-2.76223278 2.76223278 -5.20706617 2.57856291 -9 3 C-5.83583464 -0.30799106 -4.50236011 -1.35070803 0 0 Z " fill="#0DA1F5" transform="translate(810,170)"/>
<path d="M0 0 C3.12290635 0.48578543 5.99580359 0.9986012 9 2 C8.67 2.66 8.34 3.32 8 4 C5.36 3.34 2.72 2.68 0 2 C0 1.34 0 0.68 0 0 Z " fill="#1190F3" transform="translate(626,86)"/>
<path d="M0 0 C1.65 0 3.3 0 5 0 C5 0.66 5 1.32 5 2 C5.66 2.33 6.32 2.66 7 3 C5 4 5 4 1.875 3.0625 C0.92625 2.711875 -0.0225 2.36125 -1 2 C-0.67 1.34 -0.34 0.68 0 0 Z " fill="#047BF8" transform="translate(579,155)"/>
<path d="M0 0 C3.80666984 1.44390925 5.26602582 3.34952803 7 7 C6.67 7.66 6.34 8.32 6 9 C4.99712471 7.68969568 3.99777175 6.37669473 3 5.0625 C2.443125 4.33160156 1.88625 3.60070312 1.3125 2.84765625 C0 1 0 1 0 0 Z " fill="#0E9FF4" transform="translate(881,133)"/>
<path d="M0 0 C2.875 0.25 2.875 0.25 6 1 C7.375 3.0625 7.375 3.0625 8 5 C2.25 3.125 2.25 3.125 0 2 C0 1.34 0 0.68 0 0 Z " fill="#0EA3F4" transform="translate(854,135)"/>
<path d="M0 0 C0.66 0.33 1.32 0.66 2 1 C1.67 2.32 1.34 3.64 1 5 C-0.32 4.67 -1.64 4.34 -3 4 C-2.67 3.01 -2.34 2.02 -2 1 C-1.34 0.67 -0.68 0.34 0 0 Z " fill="#01A0FB" transform="translate(536,76)"/>
</svg>
