<?xml version="1.0" encoding="UTF-8"?>
<svg version="1.1" xmlns="http://www.w3.org/2000/svg" width="1080" height="340">
<path d="M0 0 C1.02089218 0.00456207 1.02089218 0.00456207 2.06240845 0.00921631 C21.06382964 0.1347045 38.34189133 3.29581526 52.55859375 16.96484375 C59.69822207 24.7973996 63.29294817 33.2238329 65.8125 43.4375 C66.11027344 44.58605469 66.11027344 44.58605469 66.4140625 45.7578125 C66.98697746 49.61094641 66.8125 53.54200613 66.8125 57.4375 C56.2525 57.4375 45.6925 57.4375 34.8125 57.4375 C33.46070671 54.05801679 32.37850635 51.02761751 31.4375 47.5625 C29.08254064 39.35944428 29.08254064 39.35944428 23.02734375 33.7109375 C11.44882159 27.7739553 -0.98952923 26.43319569 -13.80859375 29.2265625 C-17.37105993 30.49300231 -20.32585006 31.78345775 -23.34375 34.07421875 C-25.1875 35.4375 -25.1875 35.4375 -27.1875 35.4375 C-27.47753906 36.02660156 -27.76757812 36.61570313 -28.06640625 37.22265625 C-29.03388688 39.13402041 -30.07311619 41.00875452 -31.125 42.875 C-38.56829782 58.15188092 -38.38777487 78.01923567 -33.45703125 94.09765625 C-31.73212095 98.63549719 -29.63383607 102.03627304 -26.1875 105.4375 C-25.424375 106.200625 -24.66125 106.96375 -23.875 107.75 C-16.63899007 112.29354112 -9.19729616 112.96137708 -0.8125 112.875 C0.20247559 112.86815186 1.21745117 112.86130371 2.26318359 112.85424805 C10.98738813 112.66678928 17.96441362 111.64423865 24.8125 105.9375 C25.4725 105.1125 26.1325 104.2875 26.8125 103.4375 C27.34875 102.86 27.885 102.2825 28.4375 101.6875 C31.85425009 96.0964544 33.01103295 89.84923637 33.8125 83.4375 C34.8125 82.4375 34.8125 82.4375 37.95532227 82.32397461 C39.34652697 82.32413367 40.73773761 82.32982494 42.12890625 82.33984375 C43.22548805 82.34196617 43.22548805 82.34196617 44.34422302 82.34413147 C46.68785632 82.34974592 49.03139539 82.36230078 51.375 82.375 C52.96028508 82.38001314 54.54557166 82.38457637 56.13085938 82.38867188 C60.0247761 82.39972003 63.91862205 82.41699428 67.8125 82.4375 C67.67540635 84.48861003 67.53229705 86.53931845 67.38671875 88.58984375 C67.30768311 89.73187256 67.22864746 90.87390137 67.1472168 92.05053711 C65.75415704 106.14675744 59.30882281 118.94163445 48.8125 128.4375 C39.88954338 135.04077252 29.72391791 138.79473502 18.8125 140.4375 C18.09191406 140.54964844 17.37132813 140.66179687 16.62890625 140.77734375 C-6.87112975 143.75048522 -29.73316617 140.75011654 -49.1875 126.4375 C-62.39371128 115.94813004 -68.93040002 98.69579789 -71.1875 82.4375 C-72.84694319 61.14615397 -70.66778725 39.40669382 -56.27783203 22.55224609 C-41.24270329 5.91574269 -22.00225403 -0.17040285 0 0 Z " fill="#6F6F6F" transform="translate(93.1875,98.5625)"/>
<path d="M0 0 C1.21236328 -0.020625 2.42472656 -0.04125 3.67382812 -0.0625 C19.46544895 -0.13023886 33.84024998 4.14762336 45.4375 15.25 C51.89441041 22.92306636 56.59628063 31.71886026 56.5625 41.9375 C56.56636719 43.11892578 56.56636719 43.11892578 56.5703125 44.32421875 C56.4375 46.25 56.4375 46.25 55.4375 47.25 C54.04575641 47.34862603 52.64913857 47.3807898 51.25390625 47.3828125 C50.40892578 47.38410156 49.56394531 47.38539063 48.69335938 47.38671875 C47.80455078 47.38285156 46.91574219 47.37898438 46 47.375 C45.11505859 47.37886719 44.23011719 47.38273437 43.31835938 47.38671875 C42.47208984 47.38542969 41.62582031 47.38414062 40.75390625 47.3828125 C39.97474854 47.38168457 39.19559082 47.38055664 38.39282227 47.37939453 C36.4375 47.25 36.4375 47.25 34.4375 46.25 C34.015625 44.24609375 34.015625 44.24609375 33.6875 41.6875 C32.62024988 36.02784025 30.68331577 32.18066244 26.4375 28.25 C15.59786739 21.01744378 2.83827028 19.71860223 -9.84765625 21.78515625 C-19.04353084 23.91264683 -25.97237705 26.45770741 -31.5625 34.25 C-32.90077901 36.92655801 -32.76828556 39.07434052 -32.8125 42.0625 C-32.83828125 43.10019531 -32.8640625 44.13789063 -32.890625 45.20703125 C-32.51175264 48.7206213 -31.75253395 50.48844403 -29.5625 53.25 C-20.011354 58.78141909 -7.33715596 59.62879832 3.390625 61.40625 C4.64955566 61.61709229 5.90848633 61.82793457 7.20556641 62.04516602 C9.71679922 62.4633869 12.22945663 62.87316978 14.74365234 63.27319336 C29.86125045 65.77847132 45.7180377 69.33760623 55.77734375 81.79296875 C62.43080069 91.64008503 63.08596959 103.61628877 60.89453125 115.09375 C60.22344684 117.25901684 59.43291131 119.21589863 58.4375 121.25 C57.90125 122.405 57.365 123.56 56.8125 124.75 C48.99764919 137.41240864 36.47010089 143.09033441 22.4765625 146.49609375 C2.8556336 150.45588396 -21.52808468 149.33547541 -38.6875 138.1875 C-39.99330862 137.227274 -41.2869413 136.25006006 -42.5625 135.25 C-44.0784375 134.13625 -44.0784375 134.13625 -45.625 133 C-46.264375 132.4225 -46.90375 131.845 -47.5625 131.25 C-47.5625 130.59 -47.5625 129.93 -47.5625 129.25 C-48.2225 129.25 -48.8825 129.25 -49.5625 129.25 C-56.77866603 119.98355838 -58.5625 110.7698716 -58.5625 99.25 C-51.6325 99.25 -44.7025 99.25 -37.5625 99.25 C-36.27416352 102.47084121 -35.17152799 105.46218884 -34.1875 108.75 C-32.08320537 114.94997051 -29.52019237 117.92059015 -23.6875 120.9375 C-9.34343146 127.63699907 7.83219317 128.58494704 22.90234375 123.40234375 C29.11075009 120.85080237 33.83089859 117.9812224 37.3125 112.0625 C39.07472272 106.09052301 39.20998081 100.85712273 37.4375 94.875 C33.28035726 89.41875015 26.3266246 87.64376884 19.8125 86.3125 C19.06887207 86.15193115 18.32524414 85.9913623 17.55908203 85.82592773 C11.16130791 84.4935333 4.71945228 83.47052718 -1.7331543 82.44335938 C-39.43929652 76.43995052 -39.43929652 76.43995052 -51.125 62.265625 C-56.47777173 54.76010812 -57.21415181 46.21624625 -56.5625 37.25 C-55.26215032 29.85563866 -52.06114593 24.17853338 -47.5625 18.25 C-46.66337891 17.00863281 -46.66337891 17.00863281 -45.74609375 15.7421875 C-34.35804122 2.7447322 -16.22299691 0.06749037 0 0 Z " fill="#0287F7" transform="translate(611.5625,89.75)"/>
<path d="M0 0 C0.65097656 0.27714844 1.30195313 0.55429688 1.97265625 0.83984375 C14.51598474 7.04007674 20.70650764 17.81660339 25.203125 30.421875 C28.17221943 40.02776876 27 46.69154979 27 58 C2.25 58.33 -22.5 58.66 -48 59 C-45.5810137 70.09330713 -45.5810137 70.09330713 -39 77 C-30.21430426 80.74548081 -21.96343078 81.2529167 -13.0078125 77.9140625 C-9.12923982 76.14833097 -6.59898142 74.27972397 -4.78198242 70.39770508 C-3 68 -3 68 0.00268555 67.43237305 C1.2019165 67.45855713 2.40114746 67.48474121 3.63671875 67.51171875 C4.93544922 67.52783203 6.23417969 67.54394531 7.57226562 67.56054688 C8.94402699 67.60232391 10.31577177 67.64464865 11.6875 67.6875 C13.07092382 67.71258255 14.45439077 67.73539582 15.83789062 67.75585938 C19.22634764 67.81489173 22.61263385 67.89719918 26 68 C27.55611409 73.42431162 25.4884945 77.09514127 23 82 C16.55997683 92.75082458 5.93261393 98.86315697 -6 102 C-22.90027458 105.31192391 -41.71718881 105.49968119 -56.87890625 96.2421875 C-70.08392595 87.07952077 -76.4804728 76.45649667 -79.49609375 60.671875 C-81.81940764 43.74230095 -79.11184102 27.14803104 -68.93359375 13.16015625 C-67.97646484 12.09087891 -67.97646484 12.09087891 -67 11 C-66.34 11 -65.68 11 -65 11 C-64.67 10.01 -64.34 9.02 -64 8 C-46.9056834 -5.59345102 -19.96958697 -9.17003434 0 0 Z M-42.8125 23.6875 C-45.76520761 28.15874296 -48 32.52188487 -48 38 C-33.15 38 -18.3 38 -3 38 C-5.15360909 27.71425692 -5.15360909 27.71425692 -12 20.6875 C-21.31541466 15.44757926 -35.02045321 16.2417664 -42.8125 23.6875 Z " fill="#6F6F6F" transform="translate(306,136)"/>
<path d="M0 0 C1.34637453 1.00357068 2.68128608 2.02285002 4 3.0625 C5.03125 3.784375 6.0625 4.50625 7.125 5.25 C15.86276563 12.81948499 19.61759582 23.98343108 21 35.0625 C21.08267364 37.46819698 21.11787822 39.87584579 21.11352539 42.28295898 C21.11367142 42.96673111 21.11381744 43.65050323 21.1139679 44.35499573 C21.11327755 46.58956197 21.10552677 48.82404228 21.09765625 51.05859375 C21.09578895 52.61800593 21.09436652 54.17741869 21.09336853 55.73683167 C21.08956796 59.82206876 21.07975891 63.90726975 21.06866455 67.99249268 C21.05839731 72.16881828 21.05385957 76.34514976 21.04882812 80.52148438 C21.03813423 88.7018394 21.02108765 96.8821652 21 105.0625 C18.66836164 106.22831918 17.27846518 106.19155609 14.68359375 106.1953125 C13.41418945 106.19724609 13.41418945 106.19724609 12.11914062 106.19921875 C10.79172852 106.19341797 10.79172852 106.19341797 9.4375 106.1875 C8.54869141 106.19136719 7.65988281 106.19523437 6.74414062 106.19921875 C5.89916016 106.19792969 5.05417969 106.19664062 4.18359375 106.1953125 C3.01654907 106.19362061 3.01654907 106.19362061 1.82592773 106.19189453 C0 106.0625 0 106.0625 -1 105.0625 C-1.15655027 103.57611008 -1.25066943 102.08300873 -1.31640625 100.58984375 C-1.35830078 99.69072266 -1.40019531 98.79160156 -1.44335938 97.86523438 C-1.48267578 96.91970703 -1.52199219 95.97417969 -1.5625 95 C-1.60568359 94.05060547 -1.64886719 93.10121094 -1.69335938 92.12304688 C-1.79979276 89.76968647 -1.90181008 87.41621646 -2 85.0625 C-2.44988281 85.76375 -2.89976562 86.465 -3.36328125 87.1875 C-10.90050146 98.30452219 -19.8021062 105.07848008 -33 108.0625 C-46.56674427 110.53084296 -60.40698079 108.7401089 -72 101.0625 C-78.85072519 95.71915933 -82.33641068 89.74643019 -84.75 81.5 C-85.6710006 72.52024415 -84.6317692 64.48247076 -79.4375 56.875 C-72.10592475 47.91015304 -62.24921481 43.55202054 -51 42.0625 C-47.1584553 41.92648922 -43.32009066 41.94617701 -39.4765625 41.96484375 C-38.37524994 41.9662587 -37.27393738 41.96767365 -36.13925171 41.96913147 C-32.63447308 41.97471248 -29.1297592 41.98726154 -25.625 42 C-23.24349051 42.00501745 -20.86198001 42.00957993 -18.48046875 42.01367188 C-12.65362388 42.02467569 -6.82681657 42.04139493 -1 42.0625 C-1.45598497 39.80211467 -1.91970222 37.54328815 -2.38671875 35.28515625 C-2.64412842 34.02711182 -2.90153809 32.76906738 -3.16674805 31.47290039 C-4.73362591 25.05985708 -8.4235353 20.54252594 -14 17.0625 C-20.08051425 14.37435236 -25.83697956 13.54029175 -32.4375 13.625 C-33.68200928 13.63635986 -33.68200928 13.63635986 -34.95166016 13.64794922 C-42.94254705 13.86264847 -48.8257013 15.29343092 -54.9375 20.625 C-58.01099534 24.8428819 -58.84340054 30.07086022 -60 35.0625 C-66.93 35.0625 -73.86 35.0625 -81 35.0625 C-81.64915763 25.19530399 -79.83211705 16.69222221 -73.6875 8.6875 C-55.35385665 -9.21977955 -22.1040292 -14.09268419 0 0 Z M-60.4375 66.0625 C-63.40151882 69.85644408 -63.38874056 73.39761327 -63 78.0625 C-61.56084134 82.10585053 -60.53495318 84.06653801 -56.953125 86.390625 C-45.30934586 91.52545928 -30.31080188 90.45221042 -18.59765625 86.1875 C-11.90347663 83.28836657 -7.20012514 78.98035441 -3 73.0625 C-1.36311735 68.86354017 -0.9317658 65.51288589 -1 61.0625 C-7.8317953 60.98615129 -14.66347968 60.93377501 -21.49560547 60.89770508 C-23.8175874 60.88266089 -26.13954112 60.86222055 -28.46142578 60.83618164 C-31.80768823 60.79960655 -35.15357344 60.78272946 -38.5 60.76953125 C-40.04578735 60.74630547 -40.04578735 60.74630547 -41.62280273 60.72261047 C-48.7629436 60.72096024 -54.72048742 61.37161788 -60.4375 66.0625 Z " fill="#029EF4" transform="translate(878,128.9375)"/>
<path d="M0 0 C10.56 0 21.12 0 32 0 C34.4063163 6.01579075 36.7306436 11.90696079 38.734375 18.04296875 C39.09341919 19.12824356 39.09341919 19.12824356 39.4597168 20.23544312 C40.2257929 22.55193052 40.98791215 24.86969786 41.75 27.1875 C42.81027241 30.39917711 43.8731563 33.60998245 44.9375 36.8203125 C45.19875671 37.60863968 45.46001343 38.39696686 45.72918701 39.20918274 C48.30857967 46.96955153 50.99856089 54.68957159 53.76464844 62.38549805 C54.0640332 63.22894775 54.36341797 64.07239746 54.671875 64.94140625 C54.9306543 65.66013916 55.18943359 66.37887207 55.45605469 67.11938477 C56 69 56 69 56 72 C56.66 72 57.32 72 58 72 C58.10111084 71.19941162 58.20222168 70.39882324 58.30639648 69.57397461 C59.16571002 65.1461355 60.58857726 61.05935359 62.09765625 56.81640625 C62.40798798 55.93140442 62.7183197 55.04640259 63.03805542 54.13458252 C64.04168302 51.27560906 65.0520435 48.41906617 66.0625 45.5625 C66.74927101 43.60979201 67.4355498 41.65691083 68.12133789 39.70385742 C69.46708293 35.87277233 70.81506678 32.04248811 72.16503906 28.21289062 C74.44112096 21.75252908 76.69241152 15.28369599 78.9375 8.8125 C79.948125 5.904375 80.95875 2.99625 82 0 C91.9 0 101.8 0 112 0 C111.32256489 4.74204574 110.76520227 8.19245735 109.25683594 12.54760742 C108.89803345 13.59324356 108.53923096 14.6388797 108.16955566 15.71620178 C107.77844604 16.83465988 107.38733643 17.95311798 106.984375 19.10546875 C106.37257385 20.87796242 106.37257385 20.87796242 105.74841309 22.68626404 C104.64877564 25.86670607 103.54338588 29.04502268 102.43482971 32.2223587 C101.52101321 34.8445851 100.61191511 37.46843736 99.70267868 40.09225464 C92.64343554 60.45781624 85.43325885 80.76777984 78 101 C58.7431515 102.14062693 58.7431515 102.14062693 50.9375 102.125 C49.62652344 102.12757813 48.31554687 102.13015625 46.96484375 102.1328125 C44.00683616 102.03372653 41.18326548 101.8306308 38.25219727 101.49169922 C37.45266129 101.40008514 36.65312531 101.30847107 35.82936096 101.21408081 C35.22567184 101.14343414 34.62198273 101.07278748 34 101 C33.79305511 100.39978027 33.58611023 99.79956055 33.37289429 99.18115234 C31.14205127 92.71145652 28.9099757 86.24218676 26.67718506 79.77316284 C25.81096835 77.26324562 24.94495993 74.7532565 24.0791626 72.24319458 C19.63755918 59.36804434 15.1894911 46.49560346 10.65625 33.65234375 C10.32912018 32.7242691 10.00199036 31.79619446 9.66494751 30.83999634 C8.15064101 26.54534276 6.63121072 22.25262572 5.10302734 17.96289062 C4.56589347 16.44277449 4.02893571 14.92259611 3.4921875 13.40234375 C3.25141479 12.73291245 3.01064209 12.06348114 2.76257324 11.37376404 C1.40304378 7.50495994 0.68610661 4.11663969 0 0 Z " fill="#6E6E6E" transform="translate(340,135)"/>
<path d="M0 0 C10.9545266 7.62867412 16.99891104 17.88582813 19.93359375 30.74609375 C21.25251402 38.65414771 21.07879966 46.59349602 21.06640625 54.5859375 C21.06708065 56.11910518 21.06805182 57.65227275 21.06930542 59.18544006 C21.07077286 62.38185658 21.06865656 65.57824498 21.06396484 68.7746582 C21.05823416 72.87946494 21.06157352 76.98420677 21.06753731 81.08901119 C21.07113993 84.24673457 21.07000631 87.40444238 21.06740952 90.56216621 C21.06674116 92.07689992 21.06756548 93.59163504 21.06988907 95.10636711 C21.07241433 97.21279571 21.06857842 99.31911659 21.06298828 101.42553711 C21.06219269 102.62496445 21.06139709 103.82439178 21.06057739 105.06016541 C20.93359375 107.74609375 20.93359375 107.74609375 19.93359375 108.74609375 C18.45706711 108.84490172 16.97592139 108.8768862 15.49609375 108.87890625 C14.15417969 108.88083984 14.15417969 108.88083984 12.78515625 108.8828125 C11.37363281 108.87701172 11.37363281 108.87701172 9.93359375 108.87109375 C8.52207031 108.87689453 8.52207031 108.87689453 7.08203125 108.8828125 C6.18742188 108.88152344 5.2928125 108.88023437 4.37109375 108.87890625 C3.54480469 108.87777832 2.71851563 108.87665039 1.8671875 108.87548828 C-0.06640625 108.74609375 -0.06640625 108.74609375 -1.06640625 107.74609375 C-1.17461175 105.62132582 -1.21271098 103.49296929 -1.22412109 101.36547852 C-1.22920181 100.69864548 -1.23428253 100.03181244 -1.23951721 99.34477234 C-1.25024609 97.89062898 -1.25885632 96.43646884 -1.26563644 94.98230171 C-1.27741646 92.67324845 -1.29687245 90.364383 -1.3187561 88.05540466 C-1.38036195 81.48792893 -1.43419284 74.9204665 -1.46777344 68.3527832 C-1.48885534 64.33790343 -1.52427845 60.32335636 -1.56853104 56.30866814 C-1.58260002 54.78466684 -1.59139269 53.26060655 -1.59458542 51.73654366 C-1.6185322 41.3885955 -1.70302842 30.65935054 -8.52734375 22.21875 C-14.54103615 16.46453163 -21.83016698 16.1831345 -29.74804688 16.27099609 C-37.18698421 16.56914659 -42.90478734 18.35731502 -48.87890625 22.87109375 C-54.72731325 30.55757153 -57.15369409 37.85702394 -57.25585938 47.44824219 C-57.26829933 48.42716179 -57.26829933 48.42716179 -57.2809906 49.42585754 C-57.29831177 50.83464972 -57.31349978 52.24346942 -57.32676697 53.6523056 C-57.34788299 55.87938255 -57.37489341 58.1063197 -57.40344238 60.33331299 C-57.47308852 65.85887643 -57.53281501 71.38453842 -57.59246826 76.91021729 C-57.64332252 81.59011296 -57.69809056 86.2699295 -57.75828552 90.94971466 C-57.78491919 93.14839862 -57.80568969 95.34708985 -57.82629395 97.5458374 C-57.84288728 98.88440308 -57.85975826 100.22296535 -57.87695312 101.56152344 C-57.89574524 103.32094269 -57.89574524 103.32094269 -57.91491699 105.11590576 C-58.06640625 107.74609375 -58.06640625 107.74609375 -59.06640625 108.74609375 C-60.54293289 108.84490172 -62.02407861 108.8768862 -63.50390625 108.87890625 C-64.84582031 108.88083984 -64.84582031 108.88083984 -66.21484375 108.8828125 C-67.62636719 108.87701172 -67.62636719 108.87701172 -69.06640625 108.87109375 C-70.47792969 108.87689453 -70.47792969 108.87689453 -71.91796875 108.8828125 C-72.81257812 108.88152344 -73.7071875 108.88023437 -74.62890625 108.87890625 C-75.45519531 108.87777832 -76.28148437 108.87665039 -77.1328125 108.87548828 C-79.06640625 108.74609375 -79.06640625 108.74609375 -80.06640625 107.74609375 C-80.16191323 106.32930464 -80.18829108 104.90778134 -80.18666077 103.48777771 C-80.18803543 102.56926025 -80.1894101 101.6507428 -80.19082642 100.70439148 C-80.18723114 99.68875626 -80.18363586 98.67312103 -80.17993164 97.62670898 C-80.18007767 96.56342377 -80.18022369 95.50013855 -80.18037415 94.40463257 C-80.1796745 90.87129717 -80.17187968 87.33801375 -80.1640625 83.8046875 C-80.1621985 81.36231007 -80.16077452 78.91993226 -80.15977478 76.47755432 C-80.15594814 70.03474911 -80.14611662 63.59196627 -80.1350708 57.14916992 C-80.12485981 50.58056949 -80.12027783 44.01196545 -80.11523438 37.44335938 C-80.10449448 24.54426126 -80.08760729 11.64517869 -80.06640625 -1.25390625 C-76.20251665 -2.54186945 -72.52962903 -2.4380654 -68.50390625 -2.44140625 C-67.72337891 -2.45365234 -66.94285156 -2.46589844 -66.13867188 -2.47851562 C-64.1132059 -2.48375842 -62.08818073 -2.37624953 -60.06640625 -2.25390625 C-57.66953975 0.14296025 -57.78359492 0.81637689 -57.65234375 4.09765625 C-57.61367188 4.9484375 -57.575 5.79921875 -57.53515625 6.67578125 C-57.50421875 7.56523437 -57.47328125 8.4546875 -57.44140625 9.37109375 C-57.40273438 10.26828125 -57.3640625 11.16546875 -57.32421875 12.08984375 C-57.22981268 14.30838645 -57.14423877 16.52691778 -57.06640625 18.74609375 C-56.339375 17.67681641 -56.339375 17.67681641 -55.59765625 16.5859375 C-43.17498618 -1.16414685 -20.70761227 -12.56548873 0 0 Z " fill="#03A2FA" transform="translate(992.06640625,126.25390625)"/>
<path d="M0 0 C10.28018078 7.07228692 18.40170958 17.7134726 20.84375 30.15625 C21.07976605 32.69997858 21.1529808 35.25807891 21.1875 37.8125 C14.2575 37.8125 7.3275 37.8125 0.1875 37.8125 C-0.8953125 34.780625 -0.8953125 34.780625 -2 31.6875 C-5.12909114 23.63751973 -7.97336537 19.24999982 -15.9453125 15.57421875 C-23.67786499 12.41972558 -33.39828132 12.5499178 -41.390625 14.8359375 C-49.73543355 18.63093837 -53.45830892 23.43783734 -57.0546875 31.6484375 C-61.43239371 43.63429518 -61.96061912 58.94860144 -56.8125 70.8125 C-53.05079367 78.07373313 -48.50784283 82.62861961 -41.125 86.0625 C-31.04539455 88.34467482 -21.61668556 88.82226395 -12.5 83.5 C-6.85585431 79.93839024 -4.30075067 75.15518935 -2.0625 69 C-1.32 66.958125 -0.5775 64.91625 0.1875 62.8125 C7.1175 62.8125 14.0475 62.8125 21.1875 62.8125 C21.1875 72.38465753 18.22023073 81.22849565 12.1875 88.8125 C11.63449219 89.51890625 11.08148437 90.2253125 10.51171875 90.953125 C1.325164 102.07272233 -10.13896229 106.75769482 -24.16015625 108.5234375 C-38.87832349 109.68829779 -52.14471516 105.91863583 -63.8125 96.8125 C-76.42479401 85.53206423 -81.86481928 70.63955878 -83.08984375 54.05859375 C-83.52357569 37.42063645 -79.81472547 21.81326469 -69 8.875 C-51.04562128 -9.70087644 -22.18234941 -13.01283799 0 0 Z " fill="#039EF4" transform="translate(764.8125,129.1875)"/>
<path d="M0 0 C10.23 0 20.46 0 31 0 C32 1 32 1 32.12304783 3.30947971 C32.12166514 4.85670924 32.12166514 4.85670924 32.12025452 6.43519592 C32.12162918 7.61455215 32.12300385 8.79390839 32.12442017 10.00900269 C32.11902725 11.96726486 32.11902725 11.96726486 32.11352539 13.96508789 C32.11324352 15.34452818 32.11340125 16.72396861 32.1139679 18.10340881 C32.11425588 21.85944118 32.10835905 25.61544189 32.10139394 29.37146688 C32.09516051 33.29260045 32.09455661 37.21373467 32.09336853 41.13487244 C32.09025518 48.56511611 32.08204175 55.99534514 32.07201904 63.42558235 C32.06085801 71.88251638 32.05534748 80.3394511 32.05032361 88.79639065 C32.03985914 106.19760225 32.02225963 123.59879958 32 141 C29.76669842 141.16521429 27.53327625 141.32879901 25.29980469 141.49169922 C24.05608093 141.58297089 22.81235718 141.67424255 21.53094482 141.76828003 C17.4219368 142.03793568 13.36754672 142.13313744 9.25 142.125 C8.56679687 142.12886719 7.88359375 142.13273438 7.1796875 142.13671875 C2.25396825 142.12698413 2.25396825 142.12698413 0 141 C0 94.47 0 47.94 0 0 Z " fill="#727272" transform="translate(178,95)"/>
<path d="M0 0 C1 1 1 1 1.11352539 3.86743164 C1.10567017 5.74483032 1.10567017 5.74483032 1.09765625 7.66015625 C1.0962413 8.32462265 1.09482635 8.98908905 1.09336853 9.6736908 C1.08775518 11.80333899 1.07520054 13.93288339 1.0625 16.0625 C1.05748671 17.50325369 1.05292351 18.94400903 1.04882812 20.38476562 C1.03778145 23.92321102 1.02050792 27.46159539 1 31 C0.10861328 31.05160278 0.10861328 31.05160278 -0.80078125 31.10424805 C-3.53584112 31.27572099 -6.26734253 31.48136496 -9 31.6875 C-9.93457031 31.74099609 -10.86914062 31.79449219 -11.83203125 31.84960938 C-19.27897652 32.44848959 -24.55505625 34.55505625 -29.875 39.875 C-34.36990961 48.36538481 -34.15420534 58.47900566 -34.31640625 67.84375 C-34.33718735 68.85344849 -34.35796844 69.86314697 -34.37937927 70.90344238 C-34.44432466 74.1022313 -34.50350185 77.30109642 -34.5625 80.5 C-34.60573764 82.67969511 -34.64935353 84.85938276 -34.69335938 87.0390625 C-34.79994898 92.35929642 -34.90181348 97.67960472 -35 103 C-38.55012585 103.97195219 -41.569378 104.05042659 -45.26171875 103.9140625 C-47.06286133 103.84832031 -47.06286133 103.84832031 -48.90039062 103.78125 C-50.77500977 103.70390625 -50.77500977 103.70390625 -52.6875 103.625 C-54.57952148 103.55925781 -54.57952148 103.55925781 -56.50976562 103.4921875 C-65.87075893 103.12924107 -65.87075893 103.12924107 -67 102 C-67.10065628 98.93081812 -67.13614443 95.88409724 -67.12939453 92.81445312 C-67.13114685 91.85030991 -67.13289917 90.88616669 -67.13470459 89.89280701 C-67.13912493 86.68893664 -67.13618447 83.48512098 -67.1328125 80.28125 C-67.13348549 78.06547027 -67.13445547 75.84969061 -67.13571167 73.63391113 C-67.13718889 68.98330993 -67.13503331 64.33272789 -67.13037109 59.68212891 C-67.1246738 53.70617396 -67.12795267 47.73026391 -67.13394356 41.75431061 C-67.13754852 37.17685606 -67.13641088 32.59941225 -67.13381577 28.0219574 C-67.13314632 25.81782526 -67.13397554 23.61369217 -67.13629532 21.40956116 C-67.13882078 18.33486328 -67.13498275 15.26023922 -67.12939453 12.18554688 C-67.13141876 11.26499008 -67.13344299 10.34443329 -67.13552856 9.39598083 C-67.11426228 3.11426228 -67.11426228 3.11426228 -66 2 C-63.78144736 1.91216458 -61.56011504 1.89305391 -59.33984375 1.90234375 C-58.34314415 1.90446617 -58.34314415 1.90446617 -57.3263092 1.90663147 C-55.19666101 1.91224482 -53.06711661 1.92479946 -50.9375 1.9375 C-49.49674631 1.94251329 -48.05599097 1.94707649 -46.61523438 1.95117188 C-43.07675042 1.96136924 -39.53849187 1.9809417 -36 2 C-35.505 8.93 -35.505 8.93 -35 16 C-34.195625 14.80375 -33.39125 13.6075 -32.5625 12.375 C-27.95978903 6.26693179 -21.85151982 1.76009709 -14.2578125 0.23828125 C-9.52337968 -0.26137342 -4.74868297 -0.32670939 0 0 Z " fill="#6D6D6D" transform="translate(530,133)"/>
<path d="M0 0 C10.23 0 20.46 0 31 0 C32 1 32 1 32.12304783 3.30947971 C32.12166514 4.85670924 32.12166514 4.85670924 32.12025452 6.43519592 C32.12162918 7.61455215 32.12300385 8.79390839 32.12442017 10.00900269 C32.11902725 11.96726486 32.11902725 11.96726486 32.11352539 13.96508789 C32.11324352 15.34452818 32.11340125 16.72396861 32.1139679 18.10340881 C32.11425588 21.85944118 32.10835905 25.61544189 32.10139394 29.37146688 C32.09516051 33.29260045 32.09455661 37.21373467 32.09336853 41.13487244 C32.09025518 48.56511611 32.08204175 55.99534514 32.07201904 63.42558235 C32.06085801 71.88251638 32.05534748 80.3394511 32.05032361 88.79639065 C32.03985914 106.19760225 32.02225963 123.59879958 32 141 C31.34 140.67 30.68 140.34 30 140 C30 94.46 30 48.92 30 2 C20.76 2 11.52 2 2 2 C2 47.54 2 93.08 2 140 C10.91 140 19.82 140 29 140 C29 140.33 29 140.66 29 141 C22.47539798 141.77410532 16.0026065 142.10722444 9.4375 142.125 C8.38369141 142.13176758 8.38369141 142.13176758 7.30859375 142.13867188 C2.24769002 142.12384501 2.24769002 142.12384501 0 141 C0 94.47 0 47.94 0 0 Z " fill="#4D4D4D" transform="translate(178,95)"/>
<path d="M0 0 C1.68275078 1.68275078 1.50168106 3.90686758 1.84887695 6.16821289 C3.76671272 18.31266245 8.00294474 29.98400033 18.14453125 37.61328125 C25.81876099 42.60958914 34.5764216 45.64940358 43.6875 46.625 C47 47 47 47 49 49 C48.625 51.625 48.625 51.625 48 54 C37.96807159 56.5033803 28.24007348 52.9204572 19.4296875 48.171875 C7.2392335 40.77077404 -1.85660374 29.57828906 -5.578125 15.66796875 C-6.40059007 10.46663874 -6.22202985 5.24648319 -6 0 C-3.49749232 -1.25125384 -2.59701335 -0.83774624 0 0 Z " fill="#0289D8" transform="translate(528,217)"/>
<path d="M0 0 C13.25885578 4.49452738 24.05058062 13.44791305 30.859375 25.72265625 C34.80594425 33.90672773 35.49696927 41.22157898 35.078125 50.25 C32.703125 50.875 32.703125 50.875 30.078125 51.25 C27.31001516 48.48189016 27.37569508 45.5317153 26.828125 41.8125 C24.91555398 30.54635986 20.24362778 21.38773668 11.078125 14.25 C3.52992132 9.60495158 -4.07034739 7.1702751 -12.90625 6.69140625 C-15.41953877 6.14101549 -16.37222063 5.27494772 -17.921875 3.25 C-17.734375 1.125 -17.734375 1.125 -16.921875 -0.75 C-12.10313505 -3.15936997 -5.01693085 -1.28776835 0 0 Z " fill="#0287D5" transform="translate(1011.921875,59.75)"/>
<path d="M0 0 C2 1.15625 2 1.15625 4 3 C5.28713171 13.42576689 0.7000188 24.45815998 -5.23828125 32.8046875 C-13.59756754 43.22135911 -22.85018072 50.05095965 -36 53 C-40.02958167 53.28848142 -43.97019194 53.25722179 -48 53 C-48.625 50.625 -48.625 50.625 -49 48 C-46.23189016 45.23189016 -43.2817153 45.29757008 -39.5625 44.75 C-28.29635986 42.83742898 -19.13773668 38.16550278 -12 29 C-7.80530091 22.18361398 -5.21767958 15.25117437 -4.625 7.25 C-4.26521536 3.26521536 -4.26521536 3.26521536 -1.9375 0.9375 C-0.9784375 0.4734375 -0.9784375 0.4734375 0 0 Z " fill="#0283D2" transform="translate(1043,223)"/>
<path d="M0 0 C0.66 0.66 1.32 1.32 2 2 C1.625 4.125 1.625 4.125 1 6 C0.071875 6.268125 -0.85625 6.53625 -1.8125 6.8125 C-2.451875 6.99941406 -3.09125 7.18632813 -3.75 7.37890625 C-5.34453489 7.81906432 -6.95048382 8.21878515 -8.5625 8.58984375 C-19.11209687 11.12234641 -27.84926885 15.83131009 -34 25 C-37.9506928 32.22023167 -39.0366737 39.9131292 -40 48 C-42.97 48.495 -42.97 48.495 -46 49 C-48.40872199 44.18255601 -47.22199807 38.07808692 -45.875 33.0625 C-41.91606556 21.22235349 -33.88110268 11.26575804 -23.04296875 4.9921875 C-15.73214955 1.44161757 -8.13768734 -0.46062381 0 0 Z " fill="#029EF7" transform="translate(576,60)"/>
<path d="M0 0 C0.33 0 0.66 0 1 0 C1.87325144 25.68892057 2.09142237 51.36135561 2.0625 77.0625 C2.06164398 77.828577 2.06078796 78.59465401 2.05990601 79.38394547 C2.04846054 88.92265723 2.02752316 98.46132088 2 108 C7.94 108 13.88 108 20 108 C20.33 86.88 20.66 65.76 21 44 C21.33 44 21.66 44 22 44 C22.02312659 52.45767334 22.0409167 60.91533356 22.05181217 69.37303066 C22.05704031 73.29988658 22.06413669 77.22672094 22.07543945 81.15356445 C22.0862708 84.94014257 22.09227736 88.7266999 22.09487724 92.51329231 C22.09673105 93.96104319 22.10035081 95.40879288 22.10573006 96.85653496 C22.11294367 98.87757135 22.11340808 100.89862848 22.11352539 102.91967773 C22.115746 104.07217514 22.11796661 105.22467255 22.12025452 106.41209412 C22 109 22 109 21 110 C19.52347336 110.09880797 18.04232764 110.13079245 16.5625 110.1328125 C15.22058594 110.13474609 15.22058594 110.13474609 13.8515625 110.13671875 C12.44003906 110.13091797 12.44003906 110.13091797 11 110.125 C9.58847656 110.13080078 9.58847656 110.13080078 8.1484375 110.13671875 C7.25382813 110.13542969 6.35921875 110.13414062 5.4375 110.1328125 C4.61121094 110.13168457 3.78492188 110.13055664 2.93359375 110.12939453 C1 110 1 110 0 109 C-0.09550698 107.58321089 -0.12188483 106.16168759 -0.12025452 104.74168396 C-0.12162918 103.8231665 -0.12300385 102.90464905 -0.12442017 101.95829773 C-0.12082489 100.94266251 -0.11722961 99.92702728 -0.11352539 98.88061523 C-0.11367142 97.81733002 -0.11381744 96.7540448 -0.1139679 95.65853882 C-0.11326825 92.12520342 -0.10547343 88.59192 -0.09765625 85.05859375 C-0.09579225 82.61621632 -0.09436827 80.17383851 -0.09336853 77.73146057 C-0.08954189 71.28865536 -0.07971037 64.84587252 -0.06866455 58.40307617 C-0.05845356 51.83447574 -0.05387158 45.2658717 -0.04882812 38.69726562 C-0.03808823 25.79816751 -0.02120104 12.89908494 0 0 Z " fill="#064666" transform="translate(912,125)"/>
<path d="M0 0 C2 1.15625 2 1.15625 4 3 C5.36258055 14.03690246 0.16387532 25.18363735 -6 34 C-6.99 33.67 -7.98 33.34 -9 33 C-9 32.34 -9 31.68 -9 31 C-10.32 30.67 -11.64 30.34 -13 30 C-12.4225 29.2575 -11.845 28.515 -11.25 27.75 C-7.19716257 21.64910948 -5.01035352 14.20113611 -4.5 6.9375 C-4 3 -4 3 -1.9375 0.9375 C-1.298125 0.628125 -0.65875 0.31875 0 0 Z " fill="#038BDA" transform="translate(1043,223)"/>
<path d="M0 0 C0.78761719 0.33773438 1.57523438 0.67546875 2.38671875 1.0234375 C9.410292 3.89936217 15.86848127 5.71225126 23.41796875 6.54296875 C26 7 26 7 28 9 C27.625 11.625 27.625 11.625 27 14 C15.30089087 16.91941072 4.92888686 11.56732187 -5 6 C-4.67 5.34 -4.34 4.68 -4 4 C-1.525 4.99 -1.525 4.99 1 6 C1.15811388 2.94729537 1.15811388 2.94729537 0 0 Z " fill="#0286D3" transform="translate(549,257)"/>
<path d="M0 0 C0.99 0 1.98 0 3 0 C4.69832609 5.83799592 5.25287193 10.93107371 5 17 C2.60078699 18.19960651 1.07761059 18.1394129 -1.6015625 18.16113281 C-2.55595215 18.17074036 -3.5103418 18.1803479 -4.49365234 18.19024658 C-5.52699707 18.19449646 -6.5603418 18.19874634 -7.625 18.203125 C-9.21175537 18.21167511 -9.21175537 18.21167511 -10.83056641 18.22039795 C-13.06997678 18.22985408 -15.3094011 18.23638436 -17.54882812 18.24023438 C-20.98592131 18.24996016 -24.42242176 18.28098639 -27.859375 18.3125 C-30.03124644 18.31902779 -32.20312216 18.32427914 -34.375 18.328125 C-35.40834473 18.3404718 -36.44168945 18.3528186 -37.50634766 18.36553955 C-38.4607373 18.36253845 -39.41512695 18.35953735 -40.3984375 18.35644531 C-41.24067871 18.36009094 -42.08291992 18.36373657 -42.95068359 18.36749268 C-43.62695801 18.24622009 -44.30323242 18.12494751 -45 18 C-45.66 17.01 -46.32 16.02 -47 15 C-30.5 15 -14 15 3 15 C2.01 10.05 1.02 5.1 0 0 Z " fill="#0771A7" transform="translate(874,156)"/>
<path d="M0 0 C0.33 0 0.66 0 1 0 C1.02312566 8.97920777 1.04091623 17.95840537 1.05181217 26.93763638 C1.05704051 31.10662828 1.06413726 35.27559987 1.07543945 39.44458008 C1.08627008 43.46457686 1.09227721 47.48455405 1.09487724 51.50456429 C1.09673118 53.04162975 1.10035119 54.57869409 1.10573006 56.11575127 C1.11294284 58.26135487 1.11399084 60.40687655 1.11352539 62.55249023 C1.115746 63.77604721 1.11796661 64.99960419 1.12025452 66.26023865 C1 69 1 69 0 70 C-1.4887186 70.08669432 -2.981445 70.10703494 -4.47265625 70.09765625 C-5.37177734 70.09443359 -6.27089844 70.09121094 -7.19726562 70.08789062 C-8.61555664 70.07532227 -8.61555664 70.07532227 -10.0625 70.0625 C-11.01189453 70.05798828 -11.96128906 70.05347656 -12.93945312 70.04882812 C-15.29303065 70.0370011 -17.64648477 70.02052025 -20 70 C-20.33 69.34 -20.66 68.68 -21 68 C-14.73 68 -8.46 68 -2 68 C-2.01571045 65.1232959 -2.01571045 65.1232959 -2.03173828 62.18847656 C-2.06399589 55.85018349 -2.08697295 49.51190985 -2.10362434 43.17355728 C-2.11405904 39.33082746 -2.12821245 35.4881865 -2.15087891 31.64550781 C-2.17261857 27.93671547 -2.18457099 24.22800856 -2.18975449 20.51915741 C-2.19344823 19.10457769 -2.2006612 17.69000261 -2.21146011 16.27545929 C-2.2259891 14.29338648 -2.22681704 12.3112276 -2.22705078 10.32910156 C-2.231492 9.20103088 -2.23593323 8.07296021 -2.24050903 6.91070557 C-2.00492425 4.0595946 -1.48261061 2.41298859 0 0 Z " fill="#055C86" transform="translate(1012,165)"/>
<path d="M0 0 C0.66 0.33 1.32 0.66 2 1 C2 1.99 2 2.98 2 4 C3.43750191 5.68798827 3.43750191 5.68798827 5 7 C4.79503906 7.70125 4.59007812 8.4025 4.37890625 9.125 C2.77632603 14.76853609 1.55105987 20.15876543 1 26 C-0.98 26.33 -2.96 26.66 -5 27 C-7.88151849 21.23696302 -5.76129527 14.09013221 -3.8671875 8.30859375 C-2.78239204 5.42069232 -1.49165704 2.69918893 0 0 Z " fill="#016AAA" transform="translate(535,82)"/>
<path d="M0 0 C0.66 0.66 1.32 1.32 2 2 C1.625 4.125 1.625 4.125 1 6 C-5.28643343 7.85735533 -11.63583076 9.43247063 -18 11 C-18 10.34 -18 9.68 -18 9 C-18.639375 8.71125 -19.27875 8.4225 -19.9375 8.125 C-22 7 -22 7 -23 5 C-21.27255984 4.34956281 -19.5429631 3.70485156 -17.8125 3.0625 C-16.84957031 2.70285156 -15.88664063 2.34320313 -14.89453125 1.97265625 C-9.8555251 0.27938698 -5.32812423 -0.30159194 0 0 Z " fill="#037DC4" transform="translate(576,60)"/>
<path d="M0 0 C2.09422541 0.70251441 4.15743348 1.43877419 6.20703125 2.26171875 C6.20703125 2.92171875 6.20703125 3.58171875 6.20703125 4.26171875 C4.55703125 4.26171875 2.90703125 4.26171875 1.20703125 4.26171875 C1.86703125 5.58171875 2.52703125 6.90171875 3.20703125 8.26171875 C0.48988522 9.62029177 -0.94613561 8.67457893 -3.71875 7.796875 C-6.70990603 7.02514548 -9.69985788 6.86991182 -12.77734375 6.703125 C-15.29063252 6.15273424 -16.24331438 5.28666647 -17.79296875 3.26171875 C-17.60546875 1.13671875 -17.60546875 1.13671875 -16.79296875 -0.73828125 C-12.084948 -3.09229163 -4.91595227 -1.29946151 0 0 Z " fill="#049FFA" transform="translate(1011.79296875,59.73828125)"/>
<path d="M0 0 C6.98224443 1.571005 12.04426163 6.12750926 16 11.9375 C16.33 12.618125 16.66 13.29875 17 14 C16.01 14.66 15.02 15.32 14 16 C13.443125 15.71125 12.88625 15.4225 12.3125 15.125 C10.02743544 13.94010364 10.02743544 13.94010364 7.5625 13.25 C3.91399565 11.47024178 2.3603263 9.30445682 0 6 C0 4 0 2 0 0 Z " fill="#029BF0" transform="translate(535,248)"/>
<path d="M0 0 C2.29225435 0.11371497 4.58382388 0.24130964 6.875 0.375 C8.15117188 0.44460938 9.42734375 0.51421875 10.7421875 0.5859375 C14 1 14 1 16 3 C15.625 5.625 15.625 5.625 15 8 C11.32009358 8.94626165 8.64834225 9.15210808 5 8 C3.4375 6.5625 3.4375 6.5625 2 5 C-0.09989652 3.82425289 -0.09989652 3.82425289 -2 3 C-1.34 3 -0.68 3 0 3 C0 2.01 0 1.02 0 0 Z " fill="#0496E8" transform="translate(561,263)"/>
<path d="M0 0 C2.08141554 2.08141554 1.73088761 6.18606953 2.0625 9.0625 C2.15337891 9.82111328 2.24425781 10.57972656 2.33789062 11.36132812 C2.5624374 13.2404301 2.78170978 15.12016095 3 17 C2.67 16.34 2.34 15.68 2 15 C0.67203709 14.64587656 -0.66216607 14.31478446 -2 14 C-5 12 -5 12 -6 9 C-6.06740865 7.43881572 -6.08514456 5.8749748 -6.0625 4.3125 C-6.05347656 3.50425781 -6.04445313 2.69601563 -6.03515625 1.86328125 C-6.02355469 1.24839844 -6.01195312 0.63351563 -6 0 C-3.49749232 -1.25125384 -2.59701335 -0.83774624 0 0 Z " fill="#0194EB" transform="translate(528,217)"/>
<path d="M0 0 C8.25618096 6.58232509 8.25618096 6.58232509 10 11 C9.1875 13.3125 9.1875 13.3125 8 15 C5 15 5 15 2.375 12.75 C-1.01120278 8.82913363 -1.27533069 6.09361785 -1 1 C-0.67 0.67 -0.34 0.34 0 0 Z " fill="#0495E9" transform="translate(1031,72)"/>
<path d="M0 0 C1.3303125 0.02126953 1.3303125 0.02126953 2.6875 0.04296875 C4.0178125 0.05263672 4.0178125 0.05263672 5.375 0.0625 C7.6875 0.23046875 7.6875 0.23046875 9.6875 1.23046875 C9.3575 3.21046875 9.0275 5.19046875 8.6875 7.23046875 C4.7275 7.23046875 0.7675 7.23046875 -3.3125 7.23046875 C-3.6425 5.58046875 -3.9725 3.93046875 -4.3125 2.23046875 C-2.3125 0.23046875 -2.3125 0.23046875 0 0 Z " fill="#01A5F0" transform="translate(998.3125,268.76953125)"/>
<path d="M0 0 C2.015625 1.11328125 2.015625 1.11328125 4 3 C4.171875 5.91796875 4.171875 5.91796875 3.75 9.1875 C3.62109375 10.27417969 3.4921875 11.36085937 3.359375 12.48046875 C3.24078125 13.31191406 3.1221875 14.14335937 3 15 C2.34 14.67 1.68 14.34 1 14 C1 12.68 1 11.36 1 10 C0.0409375 10.2784375 0.0409375 10.2784375 -0.9375 10.5625 C-1.618125 10.706875 -2.29875 10.85125 -3 11 C-4 10 -4 10 -4.3125 6.625 C-4 3 -4 3 -2 1.0625 C-1.34 0.711875 -0.68 0.36125 0 0 Z " fill="#0468A4" transform="translate(1043,223)"/>
<path d="M0 0 C0.33 0 0.66 0 1 0 C1.01981934 0.62567871 1.03963867 1.25135742 1.06005859 1.89599609 C1.15514226 4.72276519 1.26488746 7.54877815 1.375 10.375 C1.4059375 11.35984375 1.436875 12.3446875 1.46875 13.359375 C1.50742187 14.30039063 1.54609375 15.24140625 1.5859375 16.2109375 C1.6173584 17.08024902 1.6487793 17.94956055 1.68115234 18.84521484 C1.81229433 21.20961794 1.81229433 21.20961794 4 23 C4.99613805 28.06370175 5.49491849 31.30368284 3 36 C1 33 1 33 1 31 C0.34 30.67 -0.32 30.34 -1 30 C-0.67 20.1 -0.34 10.2 0 0 Z " fill="#056492" transform="translate(933,126)"/>
<path d="M0 0 C1.32 0.33 2.64 0.66 4 1 C3.319375 1.763125 2.63875 2.52625 1.9375 3.3125 C1.298125 4.199375 0.65875 5.08625 0 6 C0.33 6.99 0.66 7.98 1 9 C-0.65 9.33 -2.3 9.66 -4 10 C-4.99 13.63 -5.98 17.26 -7 21 C-7.99 21 -8.98 21 -10 21 C-8.6894951 12.55017735 -5.26276059 6.64769759 0 0 Z " fill="#0B93D7" transform="translate(807,135)"/>
<path d="M0 0 C0.66 0.33 1.32 0.66 2 1 C2 1.99 2 2.98 2 4 C3.43750191 5.68798827 3.43750191 5.68798827 5 7 C4.34 8.32 3.68 9.64 3 11 C1.68 11 0.36 11 -1 11 C-1 12.32 -1 13.64 -1 15 C-2.32 14.67 -3.64 14.34 -5 14 C-3.8545847 8.8896856 -2.54521255 4.62765919 0 0 Z " fill="#0586CF" transform="translate(535,82)"/>
<path d="M0 0 C9.57 0 19.14 0 29 0 C29.33 1.32 29.66 2.64 30 4 C29.34 3.67 28.68 3.34 28 3 C25.82325217 2.84530633 23.6421652 2.74997894 21.4609375 2.68359375 C20.15898437 2.64169922 18.85703125 2.59980469 17.515625 2.55664062 C16.13541955 2.51682701 14.75521117 2.47711478 13.375 2.4375 C11.98696585 2.39430593 10.59894472 2.35069135 9.2109375 2.30664062 C5.80739744 2.20028 2.40378222 2.09825286 -1 2 C-0.67 1.34 -0.34 0.68 0 0 Z " fill="#343434" transform="translate(303,204)"/>
<path d="M0 0 C-1 2 -1 2 -2.6796875 2.6328125 C-9.99174795 4.27217125 -17.70360429 5.12598943 -25 3 C-25 2.34 -25 1.68 -25 1 C-24.44538086 0.97494385 -23.89076172 0.9498877 -23.31933594 0.92407227 C-20.79601157 0.80772073 -18.27302464 0.68517246 -15.75 0.5625 C-14.87730469 0.52318359 -14.00460937 0.48386719 -13.10546875 0.44335938 C-12.26113281 0.40146484 -11.41679688 0.35957031 -10.546875 0.31640625 C-9.77182617 0.27974854 -8.99677734 0.24309082 -8.19824219 0.20532227 C-5.98417268 0.06114677 -5.98417268 0.06114677 -3.84082031 -0.58227539 C-2 -1 -2 -1 0 0 Z " fill="#0B84BE" transform="translate(855,217)"/>
<path d="M0 0 C0.66 0.33 1.32 0.66 2 1 C2.625 3.0625 2.625 3.0625 3 5 C3.99 5 4.98 5 6 5 C6.66 5 7.32 5 8 5 C6.76044505 8.71866485 4.81445146 10.32283886 2 13 C1.34 13.66 0.68 14.32 0 15 C-0.68025637 13.00458132 -1.34490497 11.00382009 -2 9 C-2.268125 8.319375 -2.53625 7.63875 -2.8125 6.9375 C-3.09774493 3.9899691 -1.63762185 2.35817546 0 0 Z " fill="#0A93DC" transform="translate(938,140)"/>
<path d="M0 0 C1.3303125 0.27457031 1.3303125 0.27457031 2.6875 0.5546875 C5 1.125 5 1.125 7 2.125 C7 2.785 7 3.445 7 4.125 C5.35 4.125 3.7 4.125 2 4.125 C2.66 5.445 3.32 6.765 4 8.125 C0.79937313 9.72531344 -1.72271806 8.15673691 -5 7.125 C-4.01 6.135 -3.02 5.145 -2 4.125 C-3.65 2.805 -5.3 1.485 -7 0.125 C-4.30922264 -1.22038868 -2.91467608 -0.61852138 0 0 Z " fill="#037EC3" transform="translate(1011,59.875)"/>
<path d="M0 0 C0.33 0 0.66 0 1 0 C1 2.97 1 5.94 1 9 C-18.96810934 9.18451025 -18.96810934 9.18451025 -28 8 C-28 7.67 -28 7.34 -28 7 C-19.09 7 -10.18 7 -1 7 C-0.67 4.69 -0.34 2.38 0 0 Z " fill="#6B6B6B" transform="translate(159,147)"/>
<path d="M0 0 C2 2 2 2 2.24291992 4.03125 C2.23881104 4.8459375 2.23470215 5.660625 2.23046875 6.5 C2.22853516 7.386875 2.22660156 8.27375 2.22460938 9.1875 C2.21236328 10.115625 2.20011719 11.04375 2.1875 12 C2.18685547 12.928125 2.18621094 13.85625 2.18554688 14.8125 C2.14037187 21.71925626 2.14037187 21.71925626 1 24 C0.34 24 -0.32 24 -1 24 C-2.85041088 15.78417571 -2.42292119 8.02592644 0 0 Z " fill="#0854BC" transform="translate(557,119)"/>
<path d="M0 0 C0.33 0 0.66 0 1 0 C0.67 2.31 0.34 4.62 0 7 C5.61 7 11.22 7 17 7 C17 6.34 17 5.68 17 5 C17.99 4.67 18.98 4.34 20 4 C19.67 5.65 19.34 7.3 19 9 C15.85418577 9.02888514 12.70840531 9.04675923 9.5625 9.0625 C8.21575195 9.07506836 8.21575195 9.07506836 6.84179688 9.08789062 C5.56079102 9.09272461 5.56079102 9.09272461 4.25390625 9.09765625 C3.46314697 9.10289307 2.6723877 9.10812988 1.85766602 9.11352539 C0 9 0 9 -1 8 C-1.125 4.5 -1.125 4.5 -1 1 C-0.67 0.67 -0.34 0.34 0 0 Z " fill="#0469A8" transform="translate(648,128)"/>
<path d="M0 0 C0.66 0.33 1.32 0.66 2 1 C1.67 3.31 1.34 5.62 1 8 C-5.93 8 -12.86 8 -20 8 C-20 7.34 -20 6.68 -20 6 C-13.73 6 -7.46 6 -1 6 C-0.67 4.02 -0.34 2.04 0 0 Z " fill="#0893DD" transform="translate(817,156)"/>
<path d="M0 0 C4.47914524 0.57424939 8.4976977 1.7667887 12.7421875 3.234375 C15.79980211 4.27121317 18.88867188 5.13941988 22 6 C21.34 6.66 20.68 7.32 20 8 C12.59860922 7.66590944 5.69046488 4.98966543 -1 2 C-0.67 1.34 -0.34 0.68 0 0 Z " fill="#075EBD" transform="translate(574,161)"/>
<path d="M0 0 C14.72324723 -0.19926199 14.72324723 -0.19926199 20 1 C20.33 1.66 20.66 2.32 21 3 C18.16615892 3.82514784 15.83064749 4.07936233 12.890625 3.87890625 C12.13652344 3.83056641 11.38242187 3.78222656 10.60546875 3.73242188 C9.82816406 3.67634766 9.05085937 3.62027344 8.25 3.5625 C7.45722656 3.51029297 6.66445313 3.45808594 5.84765625 3.40429688 C3.89806003 3.27510676 1.94897114 3.13830035 0 3 C0 2.01 0 1.02 0 0 Z " fill="#117BBB" transform="translate(727,139)"/>
<path d="M0 0 C7.3905476 -0.14715692 14.64424835 0.29223008 22 1 C22 1.66 22 2.32 22 3 C22.66 3.33 23.32 3.66 24 4 C21.12473931 3.8583467 18.24986464 3.71181468 15.375 3.5625 C14.56675781 3.52318359 13.75851562 3.48386719 12.92578125 3.44335938 C8.54849135 3.21203918 4.31452719 2.83079083 0 2 C0 1.34 0 0.68 0 0 Z " fill="#0965B3" transform="translate(593,234)"/>
<path d="M0 0 C0.33 0.66 0.66 1.32 1 2 C1.66 2 2.32 2 3 2 C3 7.94 3 13.88 3 20 C2.67 20 2.34 20 2 20 C1.67 16.37 1.34 12.74 1 9 C0.01 9.495 0.01 9.495 -1 10 C-1 9.01 -1 8.02 -1 7 C-1.66 7 -2.32 7 -3 7 C-3.1875 4.625 -3.1875 4.625 -3 2 C-2.01 1.34 -1.02 0.68 0 0 Z " fill="#12A4F7" transform="translate(876,202)"/>
<path d="M0 0 C0.33 0.99 0.66 1.98 1 3 C3.28891028 4.37334617 5.45752447 5.15250816 8 6 C8 6.66 8 7.32 8 8 C8.66 8 9.32 8 10 8 C10.33 9.32 10.66 10.64 11 12 C8.00667261 11.0022242 7.05233685 10.2477975 5 8 C5 9.98 5 11.96 5 14 C4.34 14 3.68 14 3 14 C2.49307308 12.4188708 1.99473557 10.83498617 1.5 9.25 C1.2215625 8.36828125 0.943125 7.4865625 0.65625 6.578125 C0 4 0 4 0 0 Z " fill="#0278BD" transform="translate(522,226)"/>
<path d="M0 0 C2.62697064 -0.22137393 5.00893964 -0.28162025 7.625 -0.1875 C8.33140625 -0.17396484 9.0378125 -0.16042969 9.765625 -0.14648438 C11.51074128 -0.1111104 13.25546608 -0.05730221 15 0 C15.33 0.99 15.66 1.98 16 3 C10.06 3 4.12 3 -2 3 C-1.34 2.01 -0.68 1.02 0 0 Z " fill="#107FBC" transform="translate(957,139)"/>
<path d="M0 0 C-0.66386719 0.25394531 -1.32773437 0.50789063 -2.01171875 0.76953125 C-6.60753696 2.56089397 -10.77608979 4.44005442 -15 7 C-15.99 7 -16.98 7 -18 7 C-18 5.68 -18 4.36 -18 3 C-5.19196517 -1.43677024 -5.19196517 -1.43677024 0 0 Z " fill="#0792DA" transform="translate(839,123)"/>
<path d="M0 0 C0.99 0 1.98 0 3 0 C4.71648994 5.90043417 5.19202183 10.85530145 5 17 C0.71 17 -3.58 17 -8 17 C-8 16.67 -8 16.34 -8 16 C-4.04 16 -0.08 16 4 16 C2.68 10.72 1.36 5.44 0 0 Z " fill="#0FABF4" transform="translate(874,156)"/>
<path d="M0 0 C2 1 4 2 6 3 C5 6 5 6 3.25 7.25 C0.47275102 8.17574966 -1.21571665 7.77341204 -4 7 C-3.67 6.01 -3.34 5.02 -3 4 C-2.34 4 -1.68 4 -1 4 C-0.67 2.68 -0.34 1.36 0 0 Z " fill="#0593E4" transform="translate(552,66)"/>
<path d="M0 0 C1.32 0 2.64 0 4 0 C4.66 1.32 5.32 2.64 6 4 C4.90536178 5.17561146 3.79892814 6.3402489 2.6875 7.5 C2.07261719 8.1496875 1.45773437 8.799375 0.82421875 9.46875 C-1 11 -1 11 -4 11 C-2.98110061 8.72707059 -2.19097369 7.16975439 -0.3125 5.5 C0.120625 5.005 0.55375 4.51 1 4 C0.77242269 1.83700789 0.77242269 1.83700789 0 0 Z " fill="#039CF5" transform="translate(1030,254)"/>
<path d="M0 0 C0.5625 1.9375 0.5625 1.9375 1 4 C0 5 0 5 -3.3125 5.1875 C-6.64638318 5.01798052 -8.25691987 4.75557129 -11 3 C-7.48550811 -0.37391222 -4.73940561 -0.27342725 0 0 Z " fill="#039BF4" transform="translate(576,62)"/>
<path d="M0 0 C0 0.66 0 1.32 0 2 C-1.64453125 3.33203125 -1.64453125 3.33203125 -3.8125 4.8125 C-7.12657432 7.19980664 -9.22779402 9.23406229 -11 13 C-11.99 12.67 -12.98 12.34 -14 12 C-14.33 11.01 -14.66 10.02 -15 9 C-14.360625 8.71125 -13.72125 8.4225 -13.0625 8.125 C-10.84793921 7.17176549 -10.84793921 7.17176549 -10 5 C-9.01 5 -8.02 5 -7 5 C-6.67 4.01 -6.34 3.02 -6 2 C-3 0 -3 0 0 0 Z " fill="#0A5FBC" transform="translate(590,113)"/>
<path d="M0 0 C-3 2 -3 2 -5 3 C-2.64046906 5.35953094 -1.22104383 5.49141413 2 6 C1.67 6.66 1.34 7.32 1 8 C-5.41868512 8.3633218 -5.41868512 8.3633218 -8 6.75 C-9 5 -9 5 -8.8125 2.875 C-7.12915355 -1.00964565 -3.72109191 -0.0808933 0 0 Z " fill="#036FB6" transform="translate(1003,58)"/>
<path d="M0 0 C0.66 0.99 1.32 1.98 2 3 C1.67 3.66 1.34 4.32 1 5 C0.92883618 7.37402501 0.91590915 9.75000677 0.9375 12.125 C0.94652344 13.40632812 0.95554687 14.68765625 0.96484375 16.0078125 C0.97644531 16.99523437 0.98804688 17.98265625 1 19 C-1.77733085 16.61838384 -1.98050819 16.23000334 -2.3125 12.3125 C-2.16082167 8.00962523 -1.17985289 4.12948513 0 0 Z " fill="#0E6EA5" transform="translate(795,192)"/>
<path d="M0 0 C0 0.66 0 1.32 0 2 C2.97 2 5.94 2 9 2 C9 2.33 9 2.66 9 3 C7.83082031 3.06058594 6.66164063 3.12117187 5.45703125 3.18359375 C3.90884386 3.26804034 2.36066732 3.35268625 0.8125 3.4375 C0.04357422 3.47681641 -0.72535156 3.51613281 -1.51757812 3.55664062 C-5.43251075 3.77507034 -9.17120688 4.08692108 -13 5 C-13 4.01 -13 3.02 -13 2 C-8.46298506 0.54815522 -4.81938524 -0.23509196 0 0 Z " fill="#0C63A0" transform="translate(844,139)"/>
<path d="M0 0 C1.875 0.875 1.875 0.875 3.875 3.875 C2.885 3.875 1.895 3.875 0.875 3.875 C-0.115 4.37 -0.115 4.37 -1.125 4.875 C-0.135 6.36 -0.135 6.36 0.875 7.875 C-0.445 7.875 -1.765 7.875 -3.125 7.875 C-4.875 5.375 -4.875 5.375 -6.125 2.875 C-2.7254415 -0.16032009 -2.7254415 -0.16032009 0 0 Z " fill="#0384CC" transform="translate(536.125,245.125)"/>
<path d="M0 0 C6.6 0.33 13.2 0.66 20 1 C20 1.66 20 2.32 20 3 C13.73 3 7.46 3 1 3 C0.67 2.01 0.34 1.02 0 0 Z " fill="#0A668F" transform="translate(877,232)"/>
<path d="M0 0 C1.07779829 3.23339488 0.93183292 3.94668367 0 7.0625 C-1.03041561 10.09324587 -1.03041561 10.09324587 0 13 C-1.66666667 14.66666667 -3.33333333 16.33333333 -5 18 C-6.35114472 14.94255252 -5.9224598 13.77959635 -4.78515625 10.546875 C-4.22254947 9.27604557 -3.64790949 8.01048782 -3.0625 6.75 C-2.77181641 6.1003125 -2.48113281 5.450625 -2.18164062 4.78125 C-1.46471025 3.18284785 -0.73371051 1.59076946 0 0 Z " fill="#0985D5" transform="translate(690,146)"/>
<path d="M0 0 C0.66 0 1.32 0 2 0 C2 0.66 2 1.32 2 2 C2.66 2 3.32 2 4 2 C4.33 4.31 4.66 6.62 5 9 C3.35 9.33 1.7 9.66 0 10 C0 6.7 0 3.4 0 0 Z " fill="#029EF6" transform="translate(530,99)"/>
<path d="M0 0 C0.33 0.99 0.66 1.98 1 3 C0.01 3.495 0.01 3.495 -1 4 C-1 4.66 -1 5.32 -1 6 C-0.01 6.66 0.98 7.32 2 8 C-3.75 13 -3.75 13 -6 13 C-5.649375 12.21625 -5.29875 11.4325 -4.9375 10.625 C-4.628125 9.75875 -4.31875 8.8925 -4 8 C-4.33 7.34 -4.66 6.68 -5 6 C-3.78741495 2.76643985 -2.98715542 1.99143695 0 0 Z " fill="#0189D4" transform="translate(550,67)"/>
<path d="M0 0 C1.45823212 -0.0270043 2.91660675 -0.04639787 4.375 -0.0625 C5.18710937 -0.07410156 5.99921875 -0.08570313 6.8359375 -0.09765625 C9 0 9 0 11 1 C10.67 2.65 10.34 4.3 10 6 C6.27715732 5.49691315 4.42672659 4.88896023 2 2 C1.34 1.34 0.68 0.68 0 0 Z " fill="#01A6F9" transform="translate(997,269)"/>
<path d="M0 0 C5.28 0.33 10.56 0.66 16 1 C16 1.99 16 2.98 16 4 C13.89505699 3.91291962 11.79097858 3.80474307 9.6875 3.6875 C7.92986328 3.60048828 7.92986328 3.60048828 6.13671875 3.51171875 C3 3 3 3 0 0 Z " fill="#0E8ACB" transform="translate(819,234)"/>
<path d="M0 0 C5.28 0 10.56 0 16 0 C16 0.66 16 1.32 16 2 C15.09636719 2.06058594 14.19273437 2.12117187 13.26171875 2.18359375 C12.08222656 2.26738281 10.90273438 2.35117188 9.6875 2.4375 C8.51574219 2.51871094 7.34398437 2.59992188 6.13671875 2.68359375 C2.97409042 2.8867371 2.97409042 2.8867371 0 4 C0 2.68 0 1.36 0 0 Z " fill="#05A6F4" transform="translate(555,189)"/>
<path d="M0 0 C0.99 0.33 1.98 0.66 3 1 C3.625 3.3125 3.625 3.3125 4 6 C2 9 2 9 -0.125 9.6875 C-0.74375 9.790625 -1.3625 9.89375 -2 10 C-1.67 9.01 -1.34 8.02 -1 7 C-1.27571139 4.99124558 -1.60235737 2.98821313 -2 1 C-1.34 0.67 -0.68 0.34 0 0 Z " fill="#049EF8" transform="translate(1041,232)"/>
<path d="M0 0 C-0.66 0 -1.32 0 -2 0 C-2 0.66 -2 1.32 -2 2 C-3.37285156 2.41572266 -3.37285156 2.41572266 -4.7734375 2.83984375 C-6.55621094 3.38318359 -6.55621094 3.38318359 -8.375 3.9375 C-10.15003906 4.47697266 -10.15003906 4.47697266 -11.9609375 5.02734375 C-14.87926818 5.87576274 -14.87926818 5.87576274 -17 7 C-16 4 -16 4 -14.07421875 2.8671875 C-13.28660156 2.53976563 -12.49898437 2.21234375 -11.6875 1.875 C-10.90761719 1.54242188 -10.12773438 1.20984375 -9.32421875 0.8671875 C-3.69706582 -1.23235527 -3.69706582 -1.23235527 0 0 Z " fill="#0672B5" transform="translate(967,123)"/>
<path d="M0 0 C1.60294922 0.01353516 1.60294922 0.01353516 3.23828125 0.02734375 C4.04652344 0.03894531 4.85476562 0.05054687 5.6875 0.0625 C5.3575 0.7225 5.0275 1.3825 4.6875 2.0625 C2.13808627 2.37491371 -0.31611513 2.57553421 -2.875 2.6875 C-3.94137695 2.74550781 -3.94137695 2.74550781 -5.02929688 2.8046875 C-6.78992425 2.89921783 -8.55117728 2.98195817 -10.3125 3.0625 C-10.6425 2.4025 -10.9725 1.7425 -11.3125 1.0625 C-7.47525828 0.15836327 -3.93747726 -0.04326898 0 0 Z " fill="#404040" transform="translate(84.3125,98.9375)"/>
<path d="M0 0 C0.66 0 1.32 0 2 0 C2.66 1.98 3.32 3.96 4 6 C3.01 6.99 2.02 7.98 1 9 C0.01 8.34 -0.98 7.68 -2 7 C-2.3125 4.5 -2.3125 4.5 -2 2 C-1.34 1.34 -0.68 0.68 0 0 Z " fill="#02A4F7" transform="translate(538,79)"/>
<path d="M0 0 C3.39914975 1.13304992 4.05254451 2.12518475 6 5 C5.01 6.32 4.02 7.64 3 9 C1.68 8.01 0.36 7.02 -1 6 C-0.67 4.02 -0.34 2.04 0 0 Z " fill="#02A0F8" transform="translate(527,234)"/>
<path d="M0 0 C1.32 0 2.64 0 4 0 C4 0.66 4 1.32 4 2 C4.66 2 5.32 2 6 2 C6 2.99 6 3.98 6 5 C6.99 5.66 7.98 6.32 9 7 C8.67 8.32 8.34 9.64 8 11 C6.84852339 9.73427767 5.70400686 8.46222094 4.5625 7.1875 C3.92441406 6.47980469 3.28632812 5.77210938 2.62890625 5.04296875 C1 3 1 3 0 0 Z " fill="#0B8DD4" transform="translate(691,213)"/>
<path d="M0 0 C0.66 0.33 1.32 0.66 2 1 C2 2.32 2 3.64 2 5 C-2.62 5 -7.24 5 -12 5 C-12 4.34 -12 3.68 -12 3 C-8.04 3 -4.08 3 0 3 C0 2.01 0 1.02 0 0 Z " fill="#16A9F9" transform="translate(784,162)"/>
<path d="M0 0 C0.66 0.33 1.32 0.66 2 1 C2.625 3.0625 2.625 3.0625 3 5 C2.34 5 1.68 5 1 5 C0.9175 5.94875 0.835 6.8975 0.75 7.875 C0.5025 8.90625 0.255 9.9375 0 11 C-1.98 11.99 -1.98 11.99 -4 13 C-2.68 8.71 -1.36 4.42 0 0 Z " fill="#016CB1" transform="translate(1038,235)"/>
<path d="M0 0 C0.33 0.66 0.66 1.32 1 2 C-0.07192184 3.3218362 -1.15802695 4.63217927 -2.25 5.9375 C-2.85328125 6.66839844 -3.4565625 7.39929688 -4.078125 8.15234375 C-6.10741134 10.10326334 -7.254407 10.61731779 -10 11 C-8.625 8.5 -8.625 8.5 -7 6 C-6.34 6 -5.68 6 -5 6 C-4.67 5.01 -4.34 4.02 -4 3 C-1.9375 1.3125 -1.9375 1.3125 0 0 Z " fill="#555555" transform="translate(246,141)"/>
<path d="M0 0 C1.4540625 0.0309375 1.4540625 0.0309375 2.9375 0.0625 C3.5975 1.3825 4.2575 2.7025 4.9375 4.0625 C1.9375 6.0625 1.9375 6.0625 -0.25 5.6875 C-0.848125 5.48125 -1.44625 5.275 -2.0625 5.0625 C-2.0625 4.0725 -2.0625 3.0825 -2.0625 2.0625 C-2.7225 1.7325 -3.3825 1.4025 -4.0625 1.0625 C-3.0625 0.0625 -3.0625 0.0625 0 0 Z " fill="#02A1F9" transform="translate(1016.0625,62.9375)"/>
<path d="M0 0 C-3.69172595 3.53790403 -7.09390595 3.59115883 -12 4 C-11.4375 2.0625 -11.4375 2.0625 -10 0 C-6.14090895 -0.91214879 -3.78396692 -1.26132231 0 0 Z " fill="#0F86D0" transform="translate(652,229)"/>
<path d="M0 0 C2.97 0.495 2.97 0.495 6 1 C5.34 2.98 4.68 4.96 4 7 C3.01 6.67 2.02 6.34 1 6 C1 5.34 1 4.68 1 4 C0.34 4 -0.32 4 -1 4 C-0.67 2.68 -0.34 1.36 0 0 Z " fill="#019FF9" transform="translate(1018,263)"/>
<path d="M0 0 C2.09440189 3.40340307 2.25797575 6.04437178 2 10 C1.67 10.66 1.34 11.32 1 12 C0.34 12 -0.32 12 -1 12 C-1.02687279 10.18757948 -1.04633715 8.37504767 -1.0625 6.5625 C-1.07410156 5.55316406 -1.08570313 4.54382813 -1.09765625 3.50390625 C-1 1 -1 1 0 0 Z " fill="#087EC3" transform="translate(652,187)"/>
<path d="M0 0 C0.66 0.99 1.32 1.98 2 3 C2.66 2.67 3.32 2.34 4 2 C4.6875 4.8125 4.6875 4.8125 5 8 C3.5625 9.875 3.5625 9.875 2 11 C-0.51351351 3.62702703 -0.51351351 3.62702703 -1 1 C-0.67 0.67 -0.34 0.34 0 0 Z " fill="#0486D5" transform="translate(936,144)"/>
<path d="M0 0 C0.66 0 1.32 0 2 0 C3.89353366 1.89353366 5.4198632 3.84526801 7 6 C4.625 6.625 4.625 6.625 2 7 C0 5 0 5 -0.125 2.375 C-0.08375 1.59125 -0.0425 0.8075 0 0 Z " fill="#0275B1" transform="translate(1040,104)"/>
<path d="M0 0 C1.9375 0.3125 1.9375 0.3125 4 1 C4.33 1.99 4.66 2.98 5 4 C5.66 4 6.32 4 7 4 C7.33 5.65 7.66 7.3 8 9 C6 9 6 9 4.4921875 7.5390625 C3.95851563 6.90742188 3.42484375 6.27578125 2.875 5.625 C2.06675781 4.68527344 2.06675781 4.68527344 1.2421875 3.7265625 C0 2 0 2 0 0 Z " fill="#0D7BBD" transform="translate(867,146)"/>
<path d="M0 0 C5.41538462 -0.36923077 5.41538462 -0.36923077 8.375 1.5 C8.91125 1.995 9.4475 2.49 10 3 C5.70700357 4.26264601 3.12168689 3.62950412 -1 2 C-0.67 1.34 -0.34 0.68 0 0 Z " fill="#0173B7" transform="translate(557,267)"/>
<path d="M0 0 C1.65 1.65 3.3 3.3 5 5 C4.01 5.99 3.02 6.98 2 8 C0.68 7.01 -0.64 6.02 -2 5 C-1.34 3.35 -0.68 1.7 0 0 Z " fill="#029FFB" transform="translate(547,256)"/>
<path d="M0 0 C3.3 0 6.6 0 10 0 C10 0.66 10 1.32 10 2 C10.66 2.33 11.32 2.66 12 3 C7.71 2.67 3.42 2.34 -1 2 C-0.67 1.34 -0.34 0.68 0 0 Z " fill="#107EC7" transform="translate(605,235)"/>
<path d="M0 0 C2.4375 1.5 2.4375 1.5 4 3 C2.58376784 3.05447047 1.16691809 3.09300508 -0.25 3.125 C-1.03890625 3.14820313 -1.8278125 3.17140625 -2.640625 3.1953125 C-5.20731941 2.9828378 -6.7916067 2.28654105 -9 1 C-5.94306678 -0.52846661 -3.37015453 -0.23242445 0 0 Z " fill="#0B84BC" transform="translate(729,234)"/>
<path d="M0 0 C0.33 0.99 0.66 1.98 1 3 C-6.425 2.01 -6.425 2.01 -14 1 C-14 0.67 -14 0.34 -14 0 C-9.20699867 -1.39151652 -4.84864218 -0.68662689 0 0 Z " fill="#0B5DB3" transform="translate(609,169)"/>
<path d="M0 0 C1.98 0.99 3.96 1.98 6 3 C6 3.66 6 4.32 6 5 C7.65 5.33 9.3 5.66 11 6 C11 6.33 11 6.66 11 7 C7.37471432 7.20140476 5.13498292 6.85776765 2 5 C2 4.01 2 3.02 2 2 C1.34 2 0.68 2 0 2 C0 1.34 0 0.68 0 0 Z " fill="#0188D5" transform="translate(996,269)"/>
<path d="M0 0 C1.0625 1.875 1.0625 1.875 2 4 C1.67 4.66 1.34 5.32 1 6 C-0.65 5.67 -2.3 5.34 -4 5 C-4 3.68 -4 2.36 -4 1 C-2.68 0.67 -1.36 0.34 0 0 Z " fill="#029CF5" transform="translate(573,264)"/>
<path d="M0 0 C0.66 0 1.32 0 2 0 C2 0.99 2 1.98 2 3 C0.71086513 3.67154933 -0.58140204 4.33708859 -1.875 5 C-2.59429688 5.37125 -3.31359375 5.7425 -4.0546875 6.125 C-6 7 -6 7 -8 7 C-8 6.34 -8 5.68 -8 5 C-6.20963542 3.99088542 -4.41927083 2.98177083 -2.62890625 1.97265625 C-1.02121854 1.1027487 -1.02121854 1.1027487 0 0 Z " fill="#0F93CB" transform="translate(860,227)"/>
<path d="M0 0 C0.639375 0.2475 1.27875 0.495 1.9375 0.75 C2.2675 1.74 2.5975 2.73 2.9375 3.75 C2.2775 4.41 1.6175 5.07 0.9375 5.75 C0.9375 5.09 0.9375 4.43 0.9375 3.75 C-0.7125 3.42 -2.3625 3.09 -4.0625 2.75 C-4.0625 2.09 -4.0625 1.43 -4.0625 0.75 C-2.0625 -0.25 -2.0625 -0.25 0 0 Z " fill="#0079BC" transform="translate(526.0625,216.25)"/>
<path d="M0 0 C0.99 0.495 0.99 0.495 2 1 C2.6328125 3.28515625 2.6328125 3.28515625 3.125 6.0625 C3.29257812 6.98160156 3.46015625 7.90070313 3.6328125 8.84765625 C3.75398437 9.55792969 3.87515625 10.26820313 4 11 C3.01 11.495 3.01 11.495 2 12 C0.00214565 7.8794254 -0.17835515 4.54805635 0 0 Z " fill="#0D61BF" transform="translate(573,189)"/>
<path d="M0 0 C0.66 0.33 1.32 0.66 2 1 C2 1.66 2 2.32 2 3 C1.34 3 0.68 3 0 3 C0 3.66 0 4.32 0 5 C-0.99 5 -1.98 5 -3 5 C-3.33 5.66 -3.66 6.32 -4 7 C-4.33 5.68 -4.66 4.36 -5 3 C-2.625 1.4375 -2.625 1.4375 0 0 Z " fill="#0661CC" transform="translate(583,94)"/>
<path d="M0 0 C0.99 0.66 1.98 1.32 3 2 C2.67 3.65 2.34 5.3 2 7 C0.35 7.33 -1.3 7.66 -3 8 C-3.33 7.34 -3.66 6.68 -4 6 C-2.35 5.34 -0.7 4.68 1 4 C0.67 2.68 0.34 1.36 0 0 Z " fill="#035B99" transform="translate(574,264)"/>
<path d="M0 0 C2.97 0.33 5.94 0.66 9 1 C9 2.32 9 3.64 9 5 C5.7 4.01 2.4 3.02 -1 2 C-0.67 1.34 -0.34 0.68 0 0 Z " fill="#0B65C5" transform="translate(579,229)"/>
<path d="M0 0 C0.33 0.66 0.66 1.32 1 2 C1.66 2.33 2.32 2.66 3 3 C1.35 4.98 -0.3 6.96 -2 9 C-3.0625 7.125 -3.0625 7.125 -4 5 C-3.67 4.34 -3.34 3.68 -3 3 C-2.01 3 -1.02 3 0 3 C0 2.01 0 1.02 0 0 Z " fill="#0887CD" transform="translate(870,216)"/>
<path d="M0 0 C0.66 0 1.32 0 2 0 C0.515 5.445 0.515 5.445 -1 11 C-1.66 9.68 -2.32 8.36 -3 7 C-1.625 3.25 -1.625 3.25 0 0 Z " fill="#434343" transform="translate(432,189)"/>
<path d="M0 0 C0.66 0.33 1.32 0.66 2 1 C1.67 4.3 1.34 7.6 1 11 C0.34 11 -0.32 11 -1 11 C-0.67 7.37 -0.34 3.74 0 0 Z " fill="#565656" transform="translate(55,153)"/>
<path d="M0 0 C1.32 0 2.64 0 4 0 C4 0.99 4 1.98 4 3 C4.99 3.33 5.98 3.66 7 4 C6.34 4.66 5.68 5.32 5 6 C3.02 4.68 1.04 3.36 -1 2 C-0.67 1.34 -0.34 0.68 0 0 Z " fill="#086DDB" transform="translate(567,156)"/>
<path d="M0 0 C0.66 0 1.32 0 2 0 C2.66 0.99 3.32 1.98 4 3 C6.05003955 4.19232613 6.05003955 4.19232613 8 5 C7.67 5.66 7.34 6.32 7 7 C6.34 6.67 5.68 6.34 5 6 C4.67 6.66 4.34 7.32 4 8 C0 2.25 0 2.25 0 0 Z " fill="#0868E1" transform="translate(578,140)"/>
<path d="M0 0 C-3.3 1.32 -6.6 2.64 -10 4 C-10.33 3.01 -10.66 2.02 -11 1 C-4.5 -1.125 -4.5 -1.125 0 0 Z " fill="#0777B5" transform="translate(839,123)"/>
<path d="M0 0 C1.32 0 2.64 0 4 0 C4.33 2.31 4.66 4.62 5 7 C4.67 6.34 4.34 5.68 4 5 C1.98330173 3.86649466 1.98330173 3.86649466 0 3 C0 2.01 0 1.02 0 0 Z " fill="#039EF9" transform="translate(1041,227)"/>
<path d="M0 0 C3 1 3 1 5 3 C4.75 5.0625 4.75 5.0625 4 7 C3.01 7.495 3.01 7.495 2 8 C2 7.01 2 6.02 2 5 C1.34 5 0.68 5 0 5 C0 3.35 0 1.7 0 0 Z " fill="#09ACFA" transform="translate(873,204)"/>
<path d="M0 0 C-0.33 1.65 -0.66 3.3 -1 5 C-2.98 4.34 -4.96 3.68 -7 3 C-4.74624683 0.74624683 -3.20799182 0 0 0 Z " fill="#0A81C3" transform="translate(817,174)"/>
<path d="M0 0 C0.66 0.33 1.32 0.66 2 1 C1.67 3.64 1.34 6.28 1 9 C0.01 9 -0.98 9 -2 9 C-1.34 6.03 -0.68 3.06 0 0 Z " fill="#0D74B6" transform="translate(799,147)"/>
<path d="M0 0 C0.66 0 1.32 0 2 0 C3.7578125 5.95703125 3.7578125 5.95703125 4 8 C3.01 9.485 3.01 9.485 2 11 C0.80712589 7.12315913 0 4.08378077 0 0 Z " fill="#1293D6" transform="translate(893,148)"/>
<path d="M0 0 C2 1 4 2 6 3 C5.67 3.66 5.34 4.32 5 5 C2.67843403 5.40729228 0.3431213 5.74438677 -2 6 C-1.67 5.195625 -1.34 4.39125 -1 3.5625 C0.06059041 1.30318875 0.06059041 1.30318875 0 0 Z " fill="#02A5F8" transform="translate(552,66)"/>
<path d="M0 0 C2.31 0 4.62 0 7 0 C7.33 0.99 7.66 1.98 8 3 C4.79937313 4.60031344 2.27728194 3.03173691 -1 2 C-0.67 1.34 -0.34 0.68 0 0 Z " fill="#0471B8" transform="translate(1007,65)"/>
<path d="M0 0 C0.33 0.66 0.66 1.32 1 2 C1.66 2 2.32 2 3 2 C3 2.66 3 3.32 3 4 C3.66 4.33 4.32 4.66 5 5 C3.02 5.33 1.04 5.66 -1 6 C-1 3 -1 3 0 0 Z " fill="#028BD5" transform="translate(1008,269)"/>
<path d="M0 0 C2.64 0 5.28 0 8 0 C6.875 1.5 6.875 1.5 5 3 C1.8125 3.1875 1.8125 3.1875 -1 3 C-0.67 2.01 -0.34 1.02 0 0 Z " fill="#0C72B7" transform="translate(625,234)"/>
<path d="M0 0 C-1.28913487 0.67154933 -2.58140204 1.33708859 -3.875 2 C-4.59429688 2.37125 -5.31359375 2.7425 -6.0546875 3.125 C-8 4 -8 4 -10 4 C-9 1 -9 1 -6.6875 -0.25 C-3.83402593 -1.04631835 -2.75197675 -0.8214856 0 0 Z " fill="#0C6FA7" transform="translate(765,230)"/>
<path d="M0 0 C3.96 1.98 3.96 1.98 8 4 C8 4.66 8 5.32 8 6 C4.62537285 5.45276317 2.91765 4.9451 0 3 C0 2.01 0 1.02 0 0 Z " fill="#0863D1" transform="translate(582,208)"/>
<path d="M0 0 C2.0625 2.3125 2.0625 2.3125 4 5 C3.67 5.99 3.34 6.98 3 8 C1.35 6.35 -0.3 4.7 -2 3 C-1.34 2.01 -0.68 1.02 0 0 Z " fill="#086EDF" transform="translate(577,201)"/>
<path d="M0 0 C1.64826111 2.96687001 2.44271087 5.65626525 3 9 C2.01 8.67 1.02 8.34 0 8 C-1.125 2.25 -1.125 2.25 0 0 Z " fill="#0B5BC8" transform="translate(555,198)"/>
<path d="M0 0 C0.99 0.33 1.98 0.66 3 1 C3.33 3.31 3.66 5.62 4 8 C3.67 7.34 3.34 6.68 3 6 C2.01 5.67 1.02 5.34 0 5 C0 3.35 0 1.7 0 0 Z " fill="#119CDF" transform="translate(667,175)"/>
<path d="M0 0 C0.66 0 1.32 0 2 0 C3.75 2.25 3.75 2.25 5 5 C4.1875 7.3125 4.1875 7.3125 3 9 C1.35173889 6.03312999 0.55728913 3.34373475 0 0 Z " fill="#0878B4" transform="translate(762,156)"/>
<path d="M0 0 C0.33 0 0.66 0 1 0 C1 2.97 1 5.94 1 9 C-0.32 9 -1.64 9 -3 9 C-3 8.34 -3 7.68 -3 7 C-2.34 7 -1.68 7 -1 7 C-0.67 4.69 -0.34 2.38 0 0 Z " fill="#494949" transform="translate(159,147)"/>
<path d="M0 0 C1.8125 0.375 1.8125 0.375 4 1 C4.7425 1.185625 5.485 1.37125 6.25 1.5625 C6.8275 1.706875 7.405 1.85125 8 2 C8 2.66 8 3.32 8 4 C1.25 3.25 1.25 3.25 -1 1 C-0.67 0.67 -0.34 0.34 0 0 Z " fill="#1371D3" transform="translate(599,149)"/>
<path d="M0 0 C1 3 1 3 0.0625 5.1875 C-0.4634375 6.0846875 -0.4634375 6.0846875 -1 7 C-1.99 6.67 -2.98 6.34 -4 6 C-4.33 5.01 -4.66 4.02 -5 3 C-3.35 2.01 -1.7 1.02 0 0 Z " fill="#0966DC" transform="translate(580,119)"/>
<path d="M0 0 C1.32 0 2.64 0 4 0 C4 1.98 4 3.96 4 6 C2.35 5.01 0.7 4.02 -1 3 C-0.67 2.01 -0.34 1.02 0 0 Z " fill="#06A2FB" transform="translate(1043,103)"/>
<path d="M0 0 C0.33 0.66 0.66 1.32 1 2 C-0.93254772 4.0245738 -2.63158688 5.42105792 -5 7 C-5.99 6.67 -6.98 6.34 -8 6 C-5.36 4.02 -2.72 2.04 0 0 Z " fill="#0759BD" transform="translate(574,99)"/>
<path d="M0 0 C0.66 0.33 1.32 0.66 2 1 C1.34 2.65 0.68 4.3 0 6 C0.99 6.33 1.98 6.66 3 7 C2.34 7.66 1.68 8.32 1 9 C0.34 8.34 -0.32 7.68 -1 7 C-1 6.01 -1 5.02 -1 4 C-1.66 3.67 -2.32 3.34 -3 3 C-2.01 2.01 -1.02 1.02 0 0 Z " fill="#027CCA" transform="translate(541,75)"/>
<path d="M0 0 C-1.28519565 2.86697492 -2.57129254 4.97607712 -5 7 C-5.66 7 -6.32 7 -7 7 C-3.86206897 0 -3.86206897 0 0 0 Z " fill="#0B91C3" transform="translate(774,220)"/>
<path d="M0 0 C2.64 0.66 5.28 1.32 8 2 C8 2.99 8 3.98 8 5 C4.5625 4.1875 4.5625 4.1875 1 3 C0.67 2.01 0.34 1.02 0 0 Z " fill="#0554A4" transform="translate(591,213)"/>
<path d="M0 0 C1.2077558 3.62326739 0.54311128 4.64146369 -1 8 C-1.99 7.67 -2.98 7.34 -4 7 C-3.43628586 3.73045798 -2.50037734 2.17424117 0 0 Z " fill="#087DD0" transform="translate(872,205)"/>
<path d="M0 0 C0.33 0 0.66 0 1 0 C1 2.31 1 4.62 1 7 C0.34 7 -0.32 7 -1 7 C-1.33 7.66 -1.66 8.32 -2 9 C-2.25 3.375 -2.25 3.375 0 0 Z " fill="#1083C1" transform="translate(785,192)"/>
<path d="M0 0 C1.41687119 4.25061356 0.19320039 6.71851625 -1 11 C-1.99 10.34 -2.98 9.68 -4 9 C-2.68 6.03 -1.36 3.06 0 0 Z " fill="#046FA3" transform="translate(690,146)"/>
<path d="M0 0 C1.5625 1.75 1.5625 1.75 3 4 C2.6875 6.25 2.6875 6.25 2 8 C0.4375 6.8125 0.4375 6.8125 -1 5 C-0.6875 2.3125 -0.6875 2.3125 0 0 Z " fill="#0F8FE1" transform="translate(662,113)"/>
<path d="M0 0 C1.9375 0.75 1.9375 0.75 4 2 C4.75 4.125 4.75 4.125 5 6 C2.5 4.6875 2.5 4.6875 0 3 C0 2.01 0 1.02 0 0 Z " fill="#0388D7" transform="translate(538,255)"/>
<path d="M0 0 C0.33 0.99 0.66 1.98 1 3 C-0.98 3.66 -2.96 4.32 -5 5 C-5.33 4.01 -5.66 3.02 -6 2 C-4.02 1.34 -2.04 0.68 0 0 Z " fill="#0472D0" transform="translate(638,212)"/>
<path d="M0 0 C0.66 0.33 1.32 0.66 2 1 C1.67 4.3 1.34 7.6 1 11 C-1.26609984 6.46780033 -0.92735976 4.82227075 0 0 Z " fill="#3E3E3E" transform="translate(495,179)"/>
<path d="M0 0 C0.33 0 0.66 0 1 0 C1.66 3.63 2.32 7.26 3 11 C2.01 11.495 2.01 11.495 1 12 C-0.26237731 9.47524538 -0.09856404 7.68799534 -0.0625 4.875 C-0.05347656 3.96492187 -0.04445313 3.05484375 -0.03515625 2.1171875 C-0.02355469 1.41851562 -0.01195312 0.71984375 0 0 Z " fill="#1B94DB" transform="translate(702,180)"/>
<path d="M0 0 C0.99 0 1.98 0 3 0 C3.625 2.8125 3.625 2.8125 4 6 C3.01 7.485 3.01 7.485 2 9 C1.34 6.03 0.68 3.06 0 0 Z " fill="#0D639E" transform="translate(874,156)"/>
<path d="M0 0 C-2 2 -2 2 -5.625 2.125 C-6.73875 2.08375 -7.8525 2.0425 -9 2 C-9 1.34 -9 0.68 -9 0 C-5.93109813 -1.53445094 -3.29905734 -0.54984289 0 0 Z " fill="#0A66A5" transform="translate(642,156)"/>
<path d="M0 0 C1.32 1.32 2.64 2.64 4 4 C3.67 3.01 3.34 2.02 3 1 C3.66 1 4.32 1 5 1 C4.67 2.65 4.34 4.3 4 6 C2.68 6 1.36 6 0 6 C0 4.02 0 2.04 0 0 Z " fill="#0293E4" transform="translate(530,103)"/>
<path d="M0 0 C0.99 0.33 1.98 0.66 3 1 C3 1.66 3 2.32 3 3 C4.98 3 6.96 3 9 3 C9 3.33 9 3.66 9 4 C1.57142857 4.28571429 1.57142857 4.28571429 -2 2 C-1.34 1.34 -0.68 0.68 0 0 Z " fill="#05A7FB" transform="translate(567,63)"/>
<path d="M0 0 C-3 2 -3 2 -7 2 C-6.67 2.99 -6.34 3.98 -6 5 C-6.99 5 -7.98 5 -9 5 C-8.625 3.0625 -8.625 3.0625 -8 1 C-5.29120665 -0.35439668 -2.99066732 -0.06501451 0 0 Z " fill="#03567D" transform="translate(1003,58)"/>
<path d="M0 0 C0.33 0.99 0.66 1.98 1 3 C1.66 3 2.32 3 3 3 C3 3.66 3 4.32 3 5 C-0.26954202 4.43628586 -1.82575883 3.50037734 -4 1 C-2.68 0.67 -1.36 0.34 0 0 Z " fill="#0D6AD7" transform="translate(569,220)"/>
<path d="M0 0 C-0.66 1.32 -1.32 2.64 -2 4 C-3.32 4 -4.64 4 -6 4 C-6 4.66 -6 5.32 -6 6 C-6.66 6 -7.32 6 -8 6 C-6.72879117 2.18637351 -4.19078006 0 0 0 Z " fill="#0BA4F6" transform="translate(664,218)"/>
<path d="M0 0 C0.99 0.33 1.98 0.66 3 1 C3.33 2.98 3.66 4.96 4 7 C3.67 6.34 3.34 5.68 3 5 C2.34 5 1.68 5 1 5 C0.34 3.68 -0.32 2.36 -1 1 C-0.67 0.67 -0.34 0.34 0 0 Z " fill="#0B57C3" transform="translate(561,214)"/>
<path d="M0 0 C0.99 0.33 1.98 0.66 3 1 C3.33 2.65 3.66 4.3 4 6 C3.01 6 2.02 6 1 6 C0.67 4.02 0.34 2.04 0 0 Z " fill="#0A93CB" transform="translate(684,196)"/>
<path d="M0 0 C-4.625 4 -4.625 4 -8 4 C-8 3.34 -8 2.68 -8 2 C-4.77208445 -0.1519437 -3.71599191 -0.20086443 0 0 Z " fill="#0674C4" transform="translate(830,144)"/>
<path d="M0 0 C-3 1.5 -3 1.5 -6 3 C-6.99 2.34 -7.98 1.68 -9 1 C-5.57367167 -0.61798838 -3.61944899 -1.34053666 0 0 Z " fill="#0473A9" transform="translate(721,125)"/>
<path d="M0 0 C1.98 0.66 3.96 1.32 6 2 C5.67 2.99 5.34 3.98 5 5 C2.525 4.01 2.525 4.01 0 3 C0 2.01 0 1.02 0 0 Z " fill="#0777BE" transform="translate(639,94)"/>
<path d="M0 0 C1.98 0.99 1.98 0.99 4 2 C4 3.32 4 4.64 4 6 C2 4.6875 2 4.6875 0 3 C0 2.01 0 1.02 0 0 Z " fill="#02A1FC" transform="translate(1030,76)"/>
</svg>
