<?xml version="1.0" encoding="UTF-8"?>
<svg version="1.1" xmlns="http://www.w3.org/2000/svg" width="512" height="512">
<path d="M0 0 C1.01790619 0.00215515 2.03581238 0.0043103 3.08456421 0.00653076 C17.69363523 0.05620146 32.02575853 0.30709809 46.375 3.3125 C47.34985352 3.51117676 48.32470703 3.70985352 49.32910156 3.91455078 C97.7109774 14.03517194 141.69928269 35.9516877 177.375 70.3125 C178.3640332 71.26068604 178.3640332 71.26068604 179.37304688 72.22802734 C188.86130305 81.37247479 197.6012044 90.66984009 205.375 101.3125 C206.23306152 102.46355017 207.09113451 103.61459177 207.94921875 104.765625 C213.98677396 112.95525981 219.36957302 121.45788276 224.375 130.3125 C224.7771875 131.01971191 225.179375 131.72692383 225.59375 132.45556641 C238.6191741 155.59095836 247.36801461 180.76212409 252.6875 206.75 C252.83485596 207.46889404 252.98221191 208.18778809 253.1340332 208.9284668 C256.10789088 224.57475609 256.74800362 240.04818046 256.6875 255.9375 C256.68534485 256.95540619 256.6831897 257.97331238 256.68096924 259.02206421 C256.63129854 273.63113523 256.38040191 287.96325853 253.375 302.3125 C253.07698486 303.77478027 253.07698486 303.77478027 252.77294922 305.26660156 C242.65232806 353.6484774 220.7358123 397.63678269 186.375 433.3125 C185.74287598 433.97185547 185.11075195 434.63121094 184.45947266 435.31054688 C175.31502521 444.79880305 166.01765991 453.5387044 155.375 461.3125 C154.22394983 462.17056152 153.07290823 463.02863451 151.921875 463.88671875 C143.73224019 469.92427396 135.22961724 475.30707302 126.375 480.3125 C125.66778809 480.7146875 124.96057617 481.116875 124.23193359 481.53125 C101.09654164 494.5566741 75.92537591 503.30551461 49.9375 508.625 C49.21860596 508.77235596 48.49971191 508.91971191 47.7590332 509.0715332 C33.08339502 511.86090125 18.55831162 512.66142619 3.64770508 512.62817383 C0.70811513 512.6250221 -2.2304558 512.64854926 -5.16992188 512.67382812 C-18.54306192 512.71848737 -31.43916711 511.51301542 -44.625 509.3125 C-46.33055054 509.03031616 -46.33055054 509.03031616 -48.07055664 508.74243164 C-91.33802759 500.97044532 -132.38793216 480.98345309 -165.625 452.3125 C-166.37007813 451.67828125 -167.11515625 451.0440625 -167.8828125 450.390625 C-181.38779833 438.57948485 -194.05918743 425.82889772 -204.625 411.3125 C-205.48149066 410.16255169 -206.33826433 409.01281411 -207.1953125 407.86328125 C-213.23534209 399.67315742 -218.61867614 391.16870382 -223.625 382.3125 C-224.0271875 381.60528809 -224.429375 380.89807617 -224.84375 380.16943359 C-237.8691741 357.03404164 -246.61801461 331.86287591 -251.9375 305.875 C-252.08485596 305.15610596 -252.23221191 304.43721191 -252.3840332 303.6965332 C-255.35789088 288.05024391 -255.99800362 272.57681954 -255.9375 256.6875 C-255.93534485 255.66959381 -255.9331897 254.65168762 -255.93096924 253.60293579 C-255.88129854 238.99386477 -255.63040191 224.66174147 -252.625 210.3125 C-252.42632324 209.33764648 -252.22764648 208.36279297 -252.02294922 207.35839844 C-241.90232806 158.9765226 -219.9858123 114.98821731 -185.625 79.3125 C-184.99287598 78.65314453 -184.36075195 77.99378906 -183.70947266 77.31445312 C-174.56502521 67.82619695 -165.26765991 59.0862956 -154.625 51.3125 C-153.47394983 50.45443848 -152.32290823 49.59636549 -151.171875 48.73828125 C-142.98224019 42.70072604 -134.47961724 37.31792698 -125.625 32.3125 C-124.91778809 31.9103125 -124.21057617 31.508125 -123.48193359 31.09375 C-100.34654164 18.0683259 -75.17537591 9.31948539 -49.1875 4 C-48.46860596 3.85264404 -47.74971191 3.70528809 -47.0090332 3.5534668 C-31.36274391 0.57960912 -15.88931954 -0.06050362 0 0 Z M-7.875 164.6875 C-9.34017904 165.80205333 -10.80634131 166.91531519 -12.2734375 168.02734375 C-13.00916992 168.58534668 -13.74490234 169.14334961 -14.50292969 169.71826172 C-17.46724984 171.94525327 -20.4751764 174.10623181 -23.5 176.25 C-24.64847966 177.06504476 -25.79691612 177.8801504 -26.9453125 178.6953125 C-27.53602539 179.11458008 -28.12673828 179.53384766 -28.73535156 179.96582031 C-34.61879726 184.15872554 -40.46079865 188.40989762 -46.31494141 192.64355469 C-48.57680829 194.27768299 -50.84076308 195.9088713 -53.10546875 197.5390625 C-61.86662863 203.84909227 -70.58918029 210.2071718 -79.25756836 216.64428711 C-83.31362677 219.64784902 -87.39552338 222.55795233 -91.625 225.3125 C-90.20648398 234.27595586 -87.35413306 242.72966479 -84.49609375 251.30859375 C-83.98192827 252.86613287 -83.46827228 254.42384026 -82.95509338 255.98170471 C-81.60417225 260.07799195 -80.24622327 264.17191539 -78.88677979 268.26538086 C-77.53667812 272.33498016 -76.19350597 276.40686402 -74.84960938 280.47851562 C-68.80896722 298.76793722 -62.71593005 317.03970985 -56.625 335.3125 C-19.005 335.3125 18.615 335.3125 57.375 335.3125 C68.53665266 301.84628149 68.53665266 301.84628149 79.62475586 268.35571289 C80.59991996 265.39897333 81.57839084 262.44335518 82.55932617 259.48852539 C83.77787191 255.81773358 84.99065692 252.14508552 86.19938087 248.47104836 C86.65145404 247.10015129 87.10551924 245.72990925 87.56174278 244.3603878 C88.19079972 242.47084491 88.81175247 240.5786099 89.43237305 238.6862793 C89.78478561 237.62015915 90.13719818 236.554039 90.50028992 235.45561218 C91.4380981 232.08576843 91.95157436 228.78149788 92.375 225.3125 C91.57320312 224.74144531 90.77140625 224.17039062 89.9453125 223.58203125 C80.83195514 217.08515097 71.75405819 210.54005447 62.68505859 203.98144531 C60.42319171 202.34731701 58.15923692 200.7161287 55.89453125 199.0859375 C47.39531444 192.96489918 38.9369479 186.79252518 30.51367188 180.56738281 C24.09466416 175.8287853 17.63639815 171.14633409 11.16015625 166.48632812 C10.45890625 165.98166016 9.75765625 165.47699219 9.03515625 164.95703125 C8.06666748 164.262146 8.06666748 164.262146 7.07861328 163.55322266 C5.69673949 162.5468193 4.34192126 161.5033398 2.99609375 160.44921875 C-1.15787991 157.5364324 -4.56385871 162.13498533 -7.875 164.6875 Z " fill="#31CCFF" transform="translate(255.625,-0.3125)"/>
<path d="M0 0 C7.90474119 23.3736149 15.53333679 46.83581378 23.125 70.3125 C25.12471773 76.49618507 27.12454297 82.67983529 29.125 88.86328125 C29.3723395 89.62782686 29.61967899 90.39237247 29.87451363 91.18008614 C34.92752016 106.79672456 40.01693048 122.40129047 45.125 138 C45.67924652 139.69329941 45.67924652 139.69329941 46.24468994 141.42080688 C50.87992785 155.5793067 55.5488305 169.72523427 60.3046875 183.84375 C67.49736704 205.23699645 74.48389826 226.69720047 81.45108795 248.16470337 C82.25120488 250.62871051 83.05242613 253.09235608 83.85394287 255.5559082 C85.12944743 259.47693095 86.40189464 263.39893296 87.67198563 267.32171249 C88.14897728 268.79346243 88.62695283 270.26489388 89.10593796 271.73599625 C89.7664192 273.76533581 90.42323664 275.79582477 91.07910156 277.82666016 C91.45149963 278.97494293 91.82389771 280.12322571 92.20758057 281.30630493 C93 284 93 284 93 286 C130.62 286 168.24 286 207 286 C204.75033359 296.12349882 204.75033359 296.12349882 203.09912109 301.10327148 C202.72985504 302.22448898 202.36058899 303.34570648 201.98013306 304.50090027 C201.58192352 305.69556412 201.18371399 306.89022797 200.7734375 308.12109375 C200.34904293 309.40544031 199.92509383 310.68993413 199.5015564 311.9745636 C198.59995744 314.70698825 197.69593327 317.43859256 196.78991699 320.16955566 C194.62653486 326.69175842 192.476858 333.21848132 190.32739258 339.74528122 C189.84246254 341.2177409 189.35739521 342.69015537 188.87219238 344.16252518 C184.42246052 357.66772188 180.06210754 371.20020942 175.75 384.75 C170.0892077 402.52252575 164.35463076 420.26982439 158.5625 438 C158.18661743 439.15238159 157.81073486 440.30476318 157.42346191 441.49206543 C156.36873269 444.72446535 155.31176226 447.95612221 154.25390625 451.1875 C153.93807083 452.15568665 153.62223541 453.12387329 153.29682922 454.12139893 C153.00753036 455.00301697 152.71823151 455.88463501 152.42016602 456.79296875 C152.16864273 457.5614917 151.91711945 458.33001465 151.65797424 459.12182617 C151 461 151 461 150 463 C134.70727873 463.41314501 120.0679863 462.68509329 105 460 C104.08814941 459.83902832 103.17629883 459.67805664 102.23681641 459.51220703 C58.63538571 451.53941775 17.55717201 431.94708129 -16 403 C-16.74507813 402.36578125 -17.49015625 401.7315625 -18.2578125 401.078125 C-31.76279833 389.26698485 -44.43418743 376.51639772 -55 362 C-55.85649066 360.85005169 -56.71326433 359.70031411 -57.5703125 358.55078125 C-63.61034209 350.36065742 -68.99367614 341.85620382 -74 333 C-74.4021875 332.29278809 -74.804375 331.58557617 -75.21875 330.85693359 C-88.2441741 307.72154164 -96.99301461 282.55037591 -102.3125 256.5625 C-102.45985596 255.84360596 -102.60721191 255.12471191 -102.7590332 254.3840332 C-105.73289088 238.73774391 -106.37300362 223.26431954 -106.3125 207.375 C-106.31034485 206.35709381 -106.3081897 205.33918762 -106.30596924 204.29043579 C-106.25629854 189.68136477 -106.00540191 175.34924147 -103 161 C-102.80132324 160.02514648 -102.60264648 159.05029297 -102.39794922 158.04589844 C-92.27732806 109.6640226 -70.3608123 65.67571731 -36 30 C-35.36787598 29.34064453 -34.73575195 28.68128906 -34.08447266 28.00195312 C-7.09717554 0 -7.09717554 0 0 0 Z " fill="#00A0FF" transform="translate(106,49)"/>
<path d="M0 0 C5.0807187 1.62702779 8.95267847 4.67737116 13.1875 7.8125 C14.80716528 8.99756858 16.42696053 10.18245956 18.046875 11.3671875 C18.87123047 11.97272461 19.69558594 12.57826172 20.54492188 13.20214844 C23.59397405 15.43496668 26.66043386 17.64290507 29.72875977 19.84912109 C36.77165449 24.91390202 43.77321622 30.03208279 50.75 35.1875 C57.26722873 40.00286929 63.82113315 44.75864473 70.42578125 49.453125 C76.87525511 54.03990213 83.27707393 58.69333353 89.68994141 63.33105469 C91.95180829 64.96518299 94.21576308 66.5963713 96.48046875 68.2265625 C104.98050976 74.3481944 113.44040228 80.52024162 121.86352539 86.74731445 C128.24828229 91.46183636 134.67501128 96.11616159 141.12695312 100.73828125 C144.83301594 103.40062369 148.4687834 106.10578718 152 109 C150.11053205 116.71299131 147.59834296 123.8731006 144.375 131.125 C143.93188477 132.12708496 143.48876953 133.12916992 143.03222656 134.16162109 C130.92841804 161.20728317 114.56860717 185.64428209 94 207 C93.36787598 207.65935547 92.73575195 208.31871094 92.08447266 208.99804688 C82.94002521 218.48630305 73.64265991 227.2262044 63 235 C61.84894983 235.85806152 60.69790823 236.71613451 59.546875 237.57421875 C51.35724019 243.61177396 42.85461724 248.99457302 34 254 C32.93918213 254.60328125 32.93918213 254.60328125 31.85693359 255.21875 C5.9229405 269.81981055 -22.66483064 279.18199681 -52 284 C-52.70608398 284.11714355 -53.41216797 284.23428711 -54.13964844 284.35498047 C-66.72326091 286.35139046 -79.28930599 286.20682195 -92 286 C-90.12712991 278.91321545 -88.074643 271.92241157 -85.76953125 264.96484375 C-85.46261353 264.03019287 -85.1556958 263.09554199 -84.83947754 262.13256836 C-84.17847497 260.11990928 -83.51634381 258.10762057 -82.85317993 256.09567261 C-81.04132651 250.59720409 -79.23908642 245.09558967 -77.4375 239.59375 C-77.06563065 238.4583226 -76.69376129 237.3228952 -76.31062317 236.15306091 C-72.58678347 224.76622137 -68.94655056 213.35323944 -65.3125 201.9375 C-60.77196038 187.67679096 -56.17437768 173.4360937 -51.5 159.21875 C-51.14647996 158.14323474 -51.14647996 158.14323474 -50.7858181 157.0459919 C-48.44916616 149.93839349 -46.10882916 142.83202786 -43.76042938 135.728302 C-38.0432752 118.48824697 -38.0432752 118.48824697 -32.79266357 101.10235596 C-30.29157203 92.42203337 -27.40965487 83.86156637 -24.58255005 75.28323364 C-18.01142407 55.3406281 -11.5747704 35.3580583 -5.25415039 15.3347168 C-4.83317078 14.003936 -4.83317078 14.003936 -4.40368652 12.64627075 C-3.880691 10.99259345 -3.35912084 9.33846443 -2.8392334 7.68380737 C-1.11219521 2.22439041 -1.11219521 2.22439041 0 0 Z " fill="#00A0FE" transform="translate(348,226)"/>
<path d="M0 0 C99.33 0 198.66 0 301 0 C298.75033359 10.12349882 298.75033359 10.12349882 297.09912109 15.10327148 C296.72985504 16.22448898 296.36058899 17.34570648 295.98013306 18.50090027 C295.58192352 19.69556412 295.18371399 20.89022797 294.7734375 22.12109375 C294.34904293 23.40544031 293.92509383 24.68993413 293.5015564 25.9745636 C292.59995744 28.70698825 291.69593327 31.43859256 290.78991699 34.16955566 C288.62653486 40.69175842 286.476858 47.21848132 284.32739258 53.74528122 C283.84246254 55.2177409 283.35739521 56.69015537 282.87219238 58.16252518 C278.42246052 71.66772188 274.06210754 85.20020942 269.75 98.75 C264.0892077 116.52252575 258.35463076 134.26982439 252.5625 152 C252.18661743 153.15238159 251.81073486 154.30476318 251.42346191 155.49206543 C250.36873269 158.72446535 249.31176226 161.95612221 248.25390625 165.1875 C247.93807083 166.15568665 247.62223541 167.12387329 247.29682922 168.12139893 C247.00753036 169.00301697 246.71823151 169.88463501 246.42016602 170.79296875 C246.04288109 171.94575317 246.04288109 171.94575317 245.65797424 173.12182617 C245 175 245 175 244 177 C228.70727873 177.41314501 214.0679863 176.68509329 199 174 C198.08814941 173.83902832 197.17629883 173.67805664 196.23681641 173.51220703 C152.63538571 165.53941775 111.55717201 145.94708129 78 117 C77.25492187 116.36578125 76.50984375 115.7315625 75.7421875 115.078125 C62.23720167 103.26698485 49.56581257 90.51639772 39 76 C38.14350934 74.85005169 37.28673567 73.70031411 36.4296875 72.55078125 C30.38965791 64.36065742 25.00632386 55.85620382 20 47 C19.5978125 46.29278809 19.195625 45.58557617 18.78125 44.85693359 C10.95011914 30.94749922 3.14809064 15.74045321 0 0 Z " fill="#63EFFF" transform="translate(12,335)"/>
<path d="M0 0 C4.78597157 3.14103862 9.04778569 6.8422539 13.38671875 10.56640625 C14.14726562 11.21351562 14.9078125 11.860625 15.69140625 12.52734375 C29.17620401 24.33237432 41.83212794 37.06542614 52.38671875 51.56640625 C53.24320941 52.71635456 54.09998308 53.86609214 54.95703125 55.015625 C60.99706084 63.20574883 66.38039489 71.71020243 71.38671875 80.56640625 C71.99 81.62722412 71.99 81.62722412 72.60546875 82.70947266 C85.63089285 105.84486461 94.37973336 131.01603034 99.69921875 157.00390625 C99.84657471 157.72280029 99.99393066 158.44169434 100.14575195 159.18237305 C103.11960963 174.82866234 103.75972237 190.30208671 103.69921875 206.19140625 C103.6970636 207.20931244 103.69490845 208.22721863 103.69268799 209.27597046 C103.60443228 235.23360682 101.13646977 261.22104581 91.38671875 285.56640625 C85.49887335 281.69268819 79.71318662 277.70910161 74.01171875 273.56640625 C72.86268066 272.73435669 72.86268066 272.73435669 71.69042969 271.88549805 C65.17193019 267.15674085 58.69254239 262.37547979 52.21557617 257.59008789 C46.5031297 253.37469636 40.74737944 249.22619341 34.9609375 245.11328125 C28.51146364 240.52650412 22.10964482 235.87307272 15.69677734 231.23535156 C13.43491046 229.60122326 11.17095567 227.97003495 8.90625 226.33984375 C1.20140824 220.79090522 -6.47599363 215.20803639 -14.11328125 209.56640625 C-23.23190968 202.83246356 -32.39722929 196.16640646 -41.61328125 189.56640625 C-42.35916504 189.03208984 -43.10504883 188.49777344 -43.87353516 187.94726562 C-53.96522296 180.71734553 -53.96522296 180.71734553 -64.36328125 173.94140625 C-68.92460432 171.09914037 -73.14604874 167.91094963 -77.36962891 164.60009766 C-81.73180874 161.19828155 -86.20437349 157.98486788 -90.73828125 154.81640625 C-97.72004094 149.93273054 -104.5988586 144.92452659 -111.44677734 139.85522461 C-116.89293621 135.82635398 -122.36684522 131.83886947 -127.86328125 127.87890625 C-128.59651611 127.34869873 -129.32975098 126.81849121 -130.08520508 126.2722168 C-133.73505896 123.63370454 -137.39486388 121.01130178 -141.07421875 118.4140625 C-142.46233071 117.42330475 -143.85035566 116.43242506 -145.23828125 115.44140625 C-145.88442383 114.99192627 -146.53056641 114.54244629 -147.19628906 114.0793457 C-148.72402299 112.98162965 -150.17751259 111.78193901 -151.61328125 110.56640625 C-151.61328125 109.57640625 -151.61328125 108.58640625 -151.61328125 107.56640625 C-150.26245117 106.25463867 -150.26245117 106.25463867 -148.34375 104.921875 C-147.27205566 104.1645105 -147.27205566 104.1645105 -146.17871094 103.3918457 C-145.39399414 102.85132568 -144.60927734 102.31080566 -143.80078125 101.75390625 C-142.14247526 100.58570488 -140.48494822 99.41639713 -138.828125 98.24609375 C-137.96687012 97.64120117 -137.10561523 97.03630859 -136.21826172 96.41308594 C-132.05529522 93.46194455 -127.96118841 90.41939658 -123.86328125 87.37890625 C-117.3471014 82.5621419 -110.79212253 77.80774334 -104.1875 73.11328125 C-97.73802614 68.52650412 -91.33620732 63.87307272 -84.92333984 59.23535156 C-82.66147296 57.60122326 -80.39751817 55.97003495 -78.1328125 54.33984375 C-70.42797255 48.79090652 -62.75047065 43.20816751 -55.11328125 37.56640625 C-46.74981964 31.38813159 -38.3344505 25.28508085 -29.89550781 19.21044922 C-25.1636123 15.80174314 -20.43888094 12.38310148 -15.71264648 8.96655273 C-14.33504437 7.97130809 -12.95391991 6.98091572 -11.56884766 5.99609375 C-10.25750645 5.03739037 -8.97268682 4.04139913 -7.71630859 3.01171875 C-3.26590965 -0.54187739 -3.26590965 -0.54187739 0 0 Z " fill="#3B73CD" transform="translate(408.61328125,49.43359375)"/>
<path d="M0 0 C55.01224678 0 106.29124501 15.71728166 151 48 C146.98766163 52.2882359 142.60021145 55.61679406 137.8125 59 C136.19392243 60.15612683 134.57543536 61.31238037 132.95703125 62.46875 C131.72073975 63.34853516 131.72073975 63.34853516 130.45947266 64.24609375 C126.6266179 66.97939021 122.81386493 69.74030259 119 72.5 C117.50010745 73.58348209 116.00010715 74.66681504 114.5 75.75 C113.7575 76.28625 113.015 76.8225 112.25 77.375 C105.5 82.25 105.5 82.25 103.25024414 83.87475586 C101.7493445 84.95878416 100.24853078 86.04293142 98.74780273 87.12719727 C95.01226033 89.82587655 91.27527746 92.52251312 87.53515625 95.21484375 C79.82537027 100.76804624 72.14242369 106.35437205 64.5 112 C56.12051542 118.19011119 47.68892637 124.30474309 39.23388672 130.39111328 C36.23653137 132.54986429 33.24214366 134.71270923 30.24804688 136.87597656 C28.76137561 137.94997062 27.27440134 139.02354537 25.78710938 140.09667969 C21.82010649 142.95941132 17.85818725 145.82889431 13.90234375 148.70703125 C13.07154297 149.3103125 12.24074219 149.91359375 11.38476562 150.53515625 C9.77920397 151.70120662 8.17498906 152.86911409 6.57226562 154.0390625 C5.85619141 154.55855469 5.14011719 155.07804688 4.40234375 155.61328125 C3.76804443 156.07516846 3.13374512 156.53705566 2.48022461 157.01293945 C1 158 1 158 0 158 C0 105.86 0 53.72 0 0 Z " fill="#009FFE" transform="translate(256,0)"/>
<path d="M0 0 C18.81 0 37.62 0 57 0 C54.75033359 10.12349882 54.75033359 10.12349882 53.09912109 15.10327148 C52.72985504 16.22448898 52.36058899 17.34570648 51.98013306 18.50090027 C51.38281876 20.29289604 51.38281876 20.29289604 50.7734375 22.12109375 C50.34904293 23.40544031 49.92509383 24.68993413 49.5015564 25.9745636 C48.59995744 28.70698825 47.69593327 31.43859256 46.78991699 34.16955566 C44.62653486 40.69175842 42.476858 47.21848132 40.32739258 53.74528122 C39.84246254 55.2177409 39.35739521 56.69015537 38.87219238 58.16252518 C34.42246192 71.66771764 30.06169602 85.20008116 25.75 98.75 C17.64268526 124.21339695 9.33642331 149.61081247 1 175 C0.67 175 0.34 175 0 175 C0 117.25 0 59.5 0 0 Z " fill="#31CCFF" transform="translate(256,335)"/>
</svg>
